<svg width="363" height="439" viewBox="0 0 363 439" fill="none" xmlns="http://www.w3.org/2000/svg">
<g clip-path="url(#clip0_2_67)">
<path d="M336.922 37.1627H50.5859C40.0822 37.1627 31.5409 45.7085 31.5409 56.2179V252.541C31.5409 263.051 40.0822 271.596 50.5859 271.596H336.922C347.425 271.596 355.967 263.051 355.967 252.541V56.2179C355.967 45.7085 347.425 37.1627 336.922 37.1627V37.1627Z" fill="#F2F2F2"/>
<path d="M305.857 52.2847H19.521C9.01719 52.2847 0.475952 60.8304 0.475952 71.3399V267.663C0.475952 278.172 9.01719 286.718 19.521 286.718H305.857C316.36 286.718 324.902 278.172 324.902 267.663V71.3399C324.902 60.8304 316.36 52.2847 305.857 52.2847ZM322.899 209.88C322.899 251.21 289.412 284.715 248.105 284.715H19.521C10.1087 284.715 2.47858 277.08 2.47858 267.663V71.3399C2.47858 61.9226 10.1087 54.2884 19.5209 54.2884H305.857C315.269 54.2884 322.899 61.9226 322.899 71.3399V209.88Z" fill="#3F3D56"/>
<path d="M41.3758 244.172L39.6812 243.105C40.7827 241.353 41.9195 239.655 43.0587 238.058L44.6887 239.222C43.5715 240.788 42.4573 242.453 41.3758 244.172H41.3758Z" fill="#CCCCCC"/>
<path d="M52.4181 229.893L50.9846 228.494C54.0404 225.361 57.2565 222.671 60.543 220.499L61.647 222.171C58.4793 224.264 55.3741 226.862 52.4181 229.893V229.893ZM102.379 217.246C99.9878 217.246 97.8092 216.939 96.1782 216.672L96.5018 214.695C98.1544 214.965 100.145 215.242 102.379 215.242C104.352 215.242 106.292 215.025 108.308 214.579L108.741 216.535C106.58 217.013 104.5 217.246 102.379 217.246V217.246ZM72.4136 216.98L71.8112 215.07C73.9625 214.391 76.191 213.882 78.4347 213.557C80.3615 213.278 82.2038 213.142 84.0661 213.142H84.1893V215.146H84.0661C82.3006 215.146 80.5527 215.275 78.7217 215.54C76.5846 215.849 74.4617 216.334 72.4136 216.98H72.4136ZM120.148 211.19L118.868 209.649C121.631 207.352 123.612 204.575 125.709 201.635L126.546 200.465L128.171 201.636L127.339 202.798C125.164 205.848 123.11 208.728 120.148 211.19V211.19ZM136.208 192.818L134.976 191.238C137.675 189.131 140.725 187.423 144.299 186.017C144.908 185.778 145.489 185.564 146.048 185.374L146.694 187.27C146.163 187.451 145.611 187.654 145.032 187.882C141.639 189.216 138.753 190.83 136.208 192.818ZM160.384 185.858C159.711 185.858 159.072 185.852 158.458 185.845L158.481 183.841C159.109 183.849 159.764 183.85 160.457 183.855C162.814 183.855 166.096 183.788 170.598 183.266L170.829 185.256C166.178 185.795 162.844 185.852 160.384 185.858ZM183.011 183.234L182.614 181.271C186.211 180.543 190.396 179.677 194.538 178.607L195.038 180.547C190.849 181.629 186.633 182.502 183.011 183.234ZM206.835 176.749L206.086 174.89C210.102 173.271 213.588 171.444 216.746 169.305L217.868 170.965C214.592 173.184 210.983 175.076 206.835 176.749ZM227.069 162.431L225.444 161.26C226.003 160.484 226.486 159.728 226.953 158.996C228.332 156.835 229.758 154.601 233.153 151.859L233.391 151.669L234.632 153.241L234.411 153.418C231.269 155.955 229.993 157.956 228.641 160.074C228.159 160.829 227.66 161.61 227.069 162.431ZM245.035 147.403L244.304 145.538C247.873 144.138 251.904 143.011 256.286 142.189L256.655 144.158C252.397 144.958 248.487 146.049 245.035 147.404V147.403Z" fill="#CCCCCC"/>
<path d="M268.896 142.687L268.771 140.687C270.717 140.565 272.751 140.485 274.818 140.448L274.854 142.451C272.817 142.488 270.812 142.567 268.896 142.687Z" fill="#CCCCCC"/>
<path d="M63.707 73.9961H35.6101C34.1983 73.9961 33.0468 75.1482 33.0468 76.5608C33.0468 77.9835 34.1983 79.1356 35.6101 79.1356H63.707C65.1189 79.1356 66.2704 77.9835 66.2704 76.5608C66.2704 75.1483 65.1189 73.9961 63.707 73.9961Z" fill="#E6E6E6"/>
<path d="M110.769 73.9961H82.6719C81.26 73.9961 80.1085 75.1482 80.1085 76.5608C80.1085 77.9835 81.26 79.1356 82.6719 79.1356H110.769C112.181 79.1356 113.332 77.9835 113.332 76.5608C113.332 75.1483 112.181 73.9961 110.769 73.9961Z" fill="#E6E6E6"/>
<path d="M157.831 73.9961H129.734C128.322 73.9961 127.17 75.1482 127.17 76.5608C127.17 77.9835 128.322 79.1356 129.734 79.1356H157.831C159.242 79.1356 160.394 77.9835 160.394 76.5608C160.394 75.1483 159.242 73.9961 157.831 73.9961Z" fill="#E6E6E6"/>
<path d="M288.354 242.637H33.0186V244.64H288.354V242.637Z" fill="#E6E6E6"/>
<path d="M274.866 96.3662C256.692 96.8371 243.134 102.187 234.543 112.246C231.369 115.973 230.077 118.908 228.715 122.014C227.364 125.079 225.982 128.235 222.768 132.353V128.946C224.76 126.021 225.832 123.577 226.883 121.202C228.305 117.956 229.657 114.891 233.021 110.953C241.993 100.434 256.051 94.8534 274.806 94.3625L274.866 96.3663V96.3662Z" fill="#CCCCCC"/>
<path d="M228.715 122.014C227.364 125.079 225.982 128.235 222.768 132.353C222.387 132.844 221.977 133.355 221.536 133.886C209.941 147.681 194.45 152.21 181.994 155.856C181.213 156.087 180.452 156.297 179.711 156.497C168.637 159.503 162.569 159.393 158.053 159.323C153.517 159.243 150.523 159.192 145.166 162.258C135.343 167.858 131.318 176.054 127.423 183.978C123.407 192.133 119.622 199.838 109.97 203.454C103.271 205.959 98.5647 204.717 93.5881 203.414C89.3125 202.282 81.6066 174.417 74.7835 170.353C60.695 173.309 52.1337 219.374 41.4497 244.039L39.6073 243.238C50.5717 217.951 59.6035 171.495 74.3629 168.389C80.9415 167.007 89.6029 200.288 94.0988 201.471C98.7649 202.703 103.161 203.855 109.269 201.571C118.18 198.245 121.625 191.222 125.62 183.097C129.465 175.282 133.821 166.426 144.164 160.515C150.002 157.179 153.397 157.239 158.083 157.319C162.549 157.399 168.576 157.499 179.711 154.424C180.272 154.263 180.843 154.103 181.433 153.933C193.629 150.366 208.799 145.928 219.994 132.603C221.095 131.291 222.007 130.079 222.768 128.946C224.76 126.021 225.832 123.577 226.883 121.202C228.305 117.956 230.077 118.908 228.715 122.014V122.014Z" fill="#6C63FF"/>
<path d="M121.936 351.218C121.143 348.456 119.786 346.101 118.17 344.421L112.298 317.641L99.5005 320.778L106.834 347.605C106.352 349.875 106.449 352.585 107.241 355.346C109.052 361.655 113.809 365.845 117.867 364.705C121.925 363.565 123.747 357.527 121.936 351.218L121.936 351.218Z" fill="#FFB6B6"/>
<path d="M120.165 175.552C120.165 175.552 99.9545 175.138 94.8154 189.864C90.1378 203.268 84.5926 240.092 87.5902 242.22L100.35 332.873L118.544 330.372L113.875 221.602L120.165 175.552Z" fill="#3E72F9"/>
<path d="M213.756 343.824L210.171 439H162.609L160.686 396.351L152.235 439H101.258L107.616 365.684L114.185 350.266L118.631 339.817L213.756 343.824Z" fill="#2F2E41"/>
<path d="M175.706 157.479L142.662 155.476L131.648 169.502L107.617 178.518L118.631 285.716L113.624 349.835C113.624 349.835 183.716 405.939 213.756 343.824L205.745 268.685L207.748 181.524L184.718 171.505L175.706 157.479Z" fill="#3E72F9"/>
<path d="M239.32 133.095C239.678 136.569 239.223 139.835 238.174 142.454L243.679 175.327L227.968 177.49L224.076 143.911C222.515 141.562 221.402 138.457 221.044 134.984C220.225 127.049 223.652 120.194 228.699 119.672C233.745 119.151 238.501 125.16 239.32 133.095V133.095H239.32Z" fill="#FFB6B6"/>
<path d="M211.955 185.287C206.539 176.026 193.105 175.152 187.088 184.035C185.443 186.463 185.901 189.193 185.509 192.472C183.841 206.395 210.506 247.534 228.956 252.271C231.377 252.893 232.756 255.506 235.2 256.031H235.2C242.439 257.588 249.179 251.839 248.788 244.441L243.777 149.557L222.722 156.743L224.069 206.004L211.955 185.288L211.955 185.287Z" fill="#3E72F9"/>
<path d="M162.613 152.883C178.688 152.883 191.719 139.845 191.719 123.761C191.719 107.678 178.688 94.6398 162.613 94.6398C146.538 94.6398 133.507 107.678 133.507 123.761C133.507 139.845 146.538 152.883 162.613 152.883Z" fill="#FFB6B6"/>
<path d="M189.724 102.377C189.474 102.438 193.556 98.4569 193.729 98.3699C197.735 96.3662 193.619 115.952 190.726 115.401C183.606 114.049 180.532 111.364 177.769 118.066C176.998 119.93 176.517 122.034 175.015 123.366C172.952 125.18 169.528 125.029 167.846 127.193C166.494 128.936 166.884 131.501 167.886 133.465C168.887 135.439 170.409 137.112 171.32 139.125C172.341 141.39 167.986 148.593 166.324 152.64V152.65L166.314 152.674C165.872 153.736 164.822 150.677 163.714 150.372C162.388 150.007 160.435 153.139 158.323 152.57C158.313 152.57 158.303 152.56 158.293 152.56C156.28 151.999 154.037 151.398 151.815 150.797H151.804C145.546 149.094 143.964 151.538 143.664 151.468L139.779 147.401C138.445 146.429 138.596 143.294 137.656 142.451C136.887 141.763 134.97 143.354 134.405 142.692C131.635 139.446 130.998 136.199 129.365 129.788C127.873 123.927 124.779 106.385 131.137 105.593C137.135 104.842 132.749 96.4865 138.787 96.797C138.427 95.2742 139.098 93.6412 140.189 92.5191C141.271 91.387 142.713 90.6857 144.164 90.0846C151.324 87.1592 150.132 84.6446 157.682 86.3477C158.433 85.2958 169.337 85.997 170.699 86.3477C170.799 86.3677 167.325 87.1993 172.702 86.3477C172.502 87.58 175.906 88.121 175.706 89.3533C176.457 88.3414 184.527 94.1521 184.718 95.3644C184.968 96.8772 182.685 96.1057 184.207 96.3362C185.108 96.4764 186.65 98.3098 186.5 99.2215C187.151 98.3399 187.802 97.4682 188.463 96.5866C188.583 96.5966 188.693 96.6167 188.813 96.6367C191.857 97.2178 188.367 107.174 188.493 104.07C188.723 98.3699 192.758 101.706 189.724 102.377Z" fill="#2F2E41"/>
<path d="M301.23 257.376C301.455 257.928 302.229 257.928 302.453 257.375C304.016 253.519 306.242 249.2 308.663 245.899C309.051 245.371 308.517 244.665 307.901 244.888L302.711 246.767V214.621H300.973V246.767L295.781 244.888C295.165 244.665 294.631 245.371 295.018 245.899C297.44 249.2 299.666 253.519 301.23 257.376Z" fill="#3F3D56"/>
<path d="M335.266 290.474C335.098 291.046 335.704 291.528 336.223 291.235C339.845 289.188 344.272 287.191 348.22 286.112C348.852 285.94 348.872 285.054 348.251 284.846L343.019 283.087L363 257.914L361.639 256.833L341.658 282.006L338.761 277.304C338.417 276.746 337.559 276.967 337.534 277.622C337.379 281.713 336.438 286.48 335.266 290.474Z" fill="#3F3D56"/>
<path d="M319.011 311.926H285.246C283.149 311.926 281.444 310.22 281.444 308.122C276.979 295.066 277.067 282.273 281.444 269.728C281.444 267.63 283.149 265.924 285.246 265.924H319.011C321.108 265.924 322.813 267.63 322.813 269.728V308.122C322.813 310.22 321.108 311.926 319.011 311.926Z" fill="#E6E6E6"/>
<path d="M292.48 267.057C287.01 267.057 282.576 271.494 282.576 276.966V307.307C282.576 309.232 284.136 310.793 286.06 310.793H304.732C314.092 310.793 321.68 303.201 321.68 293.835V270.543C321.68 268.618 320.121 267.057 318.197 267.057H292.48Z" fill="white"/>
<path d="M309.992 278.215H294.183C293.785 278.215 293.461 277.89 293.461 277.492C293.461 277.093 293.785 276.769 294.183 276.769H309.992C310.391 276.769 310.715 277.093 310.715 277.492C310.715 277.89 310.391 278.215 309.992 278.215Z" fill="#E6E6E6"/>
<path d="M309.992 293.636H294.183C293.785 293.636 293.461 293.312 293.461 292.913C293.461 292.514 293.785 292.19 294.183 292.19H309.992C310.391 292.19 310.715 292.514 310.715 292.913C310.715 293.312 310.391 293.636 309.992 293.636Z" fill="#E6E6E6"/>
<path d="M318.475 285.93H285.7C285.302 285.93 284.977 285.606 284.977 285.207C284.977 284.808 285.302 284.484 285.7 284.484H318.475C318.874 284.484 319.198 284.808 319.198 285.207C319.198 285.606 318.874 285.93 318.475 285.93Z" fill="#E6E6E6"/>
<path d="M318.862 299.906H305.186C304.787 299.906 304.463 299.582 304.463 299.183C304.463 298.784 304.787 298.46 305.186 298.46H318.862C319.26 298.46 319.584 298.784 319.584 299.183C319.584 299.582 319.26 299.906 318.862 299.906Z" fill="#E6E6E6"/>
<path d="M12.4797 24.7683C19.372 24.7683 24.9593 19.2957 24.9593 12.545C24.9593 5.79421 19.372 0.321655 12.4797 0.321655C5.58733 0.321655 0 5.79421 0 12.545C0 19.2957 5.58733 24.7683 12.4797 24.7683Z" fill="#3E72F9"/>
<path d="M112.524 8.36331H45.3507C43.0463 8.36331 41.1713 6.48735 41.1713 4.18165C41.1713 1.87596 43.0462 0 45.3507 0H112.524C114.828 0 116.703 1.87596 116.703 4.18165C116.703 6.48735 114.828 8.36331 112.524 8.36331Z" fill="#F2F2F2"/>
<path d="M164.946 22.5166H45.3507C43.0463 22.5166 41.1713 20.6406 41.1713 18.3349C41.1713 16.0292 43.0462 14.1533 45.3507 14.1533H164.946C167.25 14.1533 169.125 16.0292 169.125 18.3349C169.125 20.6406 167.25 22.5166 164.946 22.5166Z" fill="#F2F2F2"/>
</g>
<defs>
<clipPath id="clip0_2_67">
<rect width="363" height="439" fill="white"/>
</clipPath>
</defs>
</svg>
