<svg width="372" height="218" viewBox="0 0 372 218" fill="none" xmlns="http://www.w3.org/2000/svg">
<g clip-path="url(#clip0_3_113)">
<path d="M194.821 82.3684C197.293 79.2395 200.912 77.9777 202.904 79.55C204.897 81.1223 204.508 84.9327 202.035 88.0624C201.064 89.3262 199.804 90.3392 198.362 91.0168L187.722 104.142L181.665 99.0208L192.797 86.6254C193.122 85.0652 193.816 83.6055 194.821 82.3684H194.821V82.3684V82.3684Z" fill="#FFB6B6"/>
<path d="M155.611 76.7527L171.136 103.119L189.93 90.1447L197.49 93.1583C197.49 93.1583 184.134 122.209 172.618 120.319C161.102 118.43 138.188 92.4346 140.818 83.3566C143.449 74.2787 155.611 76.7527 155.611 76.7527H155.611V76.7527V76.7527Z" fill="#3E72F9"/>
<path d="M202.408 68.6279L193.734 71.1881L199.711 91.4165L208.386 88.8563L202.408 68.6279Z" fill="#3E72F9"/>
<path d="M153.663 77.4093L153.848 65.0453L146.219 60.2925L137.923 70.4339L153.663 77.4093Z" fill="#FFB6B6"/>
<path opacity="0.1" d="M153.663 77.4093L154.156 65.3534L146.219 60.2925L148.916 75.2122L153.663 77.4093Z" fill="black"/>
<path d="M149.577 66.2772C157.071 66.2772 163.146 60.2063 163.146 52.7174C163.146 45.2284 157.071 39.1575 149.577 39.1575C142.083 39.1575 136.008 45.2284 136.008 52.7174C136.008 60.2063 142.083 66.2772 149.577 66.2772Z" fill="#FFB6B6"/>
<path d="M172.192 159.166L169.801 175.407L168.6 183.586L163.595 217.617C157.28 217.419 151.047 217.135 144.91 216.778L145.801 196.056L146.34 183.586L146.693 175.407L146.912 170.259L143.695 157.978C143.695 157.978 142.635 156.011 141.558 153.389C141.369 152.925 141.175 152.438 140.99 151.939C139.655 148.37 138.595 144.122 139.926 141.901C139.991 141.797 140.055 141.698 140.128 141.604C140.731 140.825 142.295 140.243 144.419 139.813C145.715 139.546 147.227 139.34 148.855 139.18C153.783 138.694 159.8 138.621 164.404 138.668C168.569 138.702 171.576 138.832 171.576 138.832L171.619 140.205L171.623 140.338L171.653 141.38L171.727 143.868L171.912 150.015L172.101 156.261L172.192 159.166Z" fill="#2F2E41"/>
<path d="M172.101 156.261L165.395 169.704L161.152 175.407L155.075 183.586L145.801 196.056L131.096 215.835C124.024 215.284 117.089 214.625 110.322 213.876L128.322 183.586L133.181 175.407L137.871 167.517L140.852 155.176C140.852 155.176 140.852 154.517 140.899 153.463C140.921 153.019 140.951 152.503 140.99 151.939C141.253 148.172 142.05 142.168 144.419 139.813C144.737 139.49 145.086 139.241 145.465 139.068C146.176 138.75 147.36 138.827 148.855 139.18C152.551 140.063 158.133 142.663 163.147 145.245C166.614 147.036 169.806 148.814 171.912 150.015L172.101 156.261Z" fill="#2F2E41"/>
<path d="M139.667 67.8181L155.081 75.2122C155.081 75.2122 171.421 123.582 171.421 126.047C171.421 128.512 176.045 130.052 173.27 132.825C170.496 135.598 178.435 137.946 174.157 140.161C169.879 142.376 143.194 154.49 140.227 153.398C132.043 150.385 140.574 139.313 140.574 139.313C140.574 139.313 134.426 134.365 135.351 131.901C136.276 129.436 129.802 82.2983 129.802 82.2983L139.667 67.8181L139.667 67.8181V67.8181V67.8181Z" fill="#3E72F9"/>
<path d="M150.719 55.8689L154.124 57.7732C154.124 57.7732 152.036 51.6001 153.56 48.8775C155.084 46.1548 154.196 44.2278 154.196 44.2278C154.196 44.2278 159.633 46.0171 161.065 43.7791C162.497 41.541 162.971 40.3757 158.307 38.4827C153.643 36.5897 155.398 37.9284 155.398 37.9284C155.398 37.9284 151.415 36.4163 152.292 37.0856C153.169 37.755 148.99 35.9543 149.579 36.8198C150.168 37.6852 146.958 36.0694 147.547 36.9348C148.136 37.8002 140.111 39.0334 141.762 39.599C143.413 40.1647 134.997 40.8209 135.249 47.3975C135.502 53.9741 130.919 55.8395 134.301 57.7511C137.683 59.6626 142.404 67.8437 142.404 67.8437L146.385 65.1393C146.385 65.1393 145.189 54.5642 150.719 55.8689H150.719V55.8689V55.8689Z" fill="#2F2E41"/>
<path d="M121.813 126.333C125.769 125.821 128.711 123.366 128.385 120.85C128.058 118.334 124.587 116.711 120.63 117.223C119.046 117.407 117.53 117.966 116.207 118.855L99.4727 121.237L100.758 129.06L117.119 125.882C118.625 126.405 120.235 126.56 121.813 126.333V126.333Z" fill="#A0616A"/>
<path d="M70.6553 92.0007L75.2453 126.148C75.2453 126.148 76.5078 133.492 88.0003 132.41C99.4927 131.329 114.596 126.875 114.596 126.875L113.613 118.901L100.777 120.291C100.777 120.291 94.7846 118.838 93.5951 119.818C92.4056 120.797 92.952 121.944 91.7756 120.518C90.5991 119.091 91.1899 118.206 90.1599 119.453C89.1299 120.701 88.9207 122.869 88.3038 120.183C87.6869 117.498 86.5392 118.044 86.5392 118.044L85.8861 93.0304C85.8861 93.0304 82.4381 81.0986 76.1402 85.0879C69.8423 89.0772 70.6553 92.0007 70.6553 92.0007H70.6553V92.0007H70.6553Z" fill="#E6E6E6"/>
<path d="M90.7729 64.7568H68.0407V98.3246H90.7729V64.7568Z" fill="#2F2E41"/>
<path d="M73.1433 88.0893L73.9394 78.475H84.5245L86.8711 88.6612L73.1433 88.0893Z" fill="#A0616A"/>
<path opacity="0.1" d="M73.1433 88.0893L73.9394 78.475H84.5245L86.8711 88.6612L73.1433 88.0893Z" fill="black"/>
<path d="M92.3199 71.8233C93.3435 65.5196 89.0599 59.5803 82.7522 58.5574C76.4445 57.5344 70.5014 61.8153 69.4778 68.1189C68.4542 74.4225 72.7378 80.3618 79.0455 81.3848C85.3531 82.4077 91.2963 78.1269 92.3199 71.8233Z" fill="#A0616A"/>
<path d="M83.8175 57.806C83.8175 57.806 83.8175 53.059 79.4068 54.0762C74.9961 55.0935 73.6389 56.7888 73.6389 56.7888C73.6389 56.7888 71.9425 59.5013 69.2282 59.8404C66.5139 60.1795 64.1389 67.978 64.4782 69.6734C64.8175 71.3687 66.5139 75.7766 64.1389 77.811C61.7639 79.8454 58.371 82.897 59.3889 85.9487C60.4067 89.0003 63.4603 96.7988 63.4603 96.7988C63.4603 96.7988 54.9434 98.043 55.6394 103.355C55.6394 103.355 59.7282 100.19 65.1568 100.19C70.5853 100.19 69.9068 90.3472 69.9068 90.3472C69.9068 90.3472 70.246 84.2533 71.2639 82.558C72.2818 80.8626 70.9246 71.3687 76.0139 66.2827C81.1032 61.1967 83.8175 57.806 83.8175 57.806H83.8175Z" fill="#2F2E41"/>
<path d="M82.4604 56.7887C82.4604 56.7887 88.9068 58.145 91.2818 64.5873C93.6568 71.0296 92.4573 72.2283 92.4573 72.2283C92.4573 72.2283 92.9824 76.1076 95.8643 77.4679C98.7461 78.8281 96.3711 84.5923 96.3711 84.5923C96.3711 84.5923 97.0497 90.3565 106.21 92.3909C115.371 94.4253 94.7227 110.026 94.7227 110.026C94.7227 110.026 96.2072 102.663 86.7072 102.324C77.2072 101.985 88.5675 84.5923 88.5675 84.5923L89.5854 73.403C89.5854 73.403 87.5497 60.5184 81.4425 58.8231C75.3354 57.1278 82.4604 56.7887 82.4604 56.7887L82.4604 56.7887H82.4604Z" fill="#2F2E41"/>
<path d="M98.8864 159.476L96.5432 175.407L95.3415 183.585L93.3041 197.42L91.2409 211.44C88.7987 211.087 86.3867 210.721 84.0047 210.342C79.9128 209.692 75.9071 209.008 71.9874 208.285L72.7498 190.494L73.047 183.585L73.4002 175.407L73.607 170.564L70.3851 158.284C70.3851 158.284 63.739 145.917 66.823 141.914C66.9652 141.733 67.1547 141.561 67.3959 141.401C68.1798 140.872 69.472 140.45 71.0959 140.123C74.9336 139.339 80.6192 139.055 85.8009 138.982C92.4513 138.888 98.2661 139.141 98.2661 139.141L98.3006 140.153L98.3652 142.348L98.8864 159.476Z" fill="#2F2E41"/>
<path d="M98.8864 159.476L96.5432 175.407L95.3415 183.585L93.3041 197.42L84.0047 210.342C79.9128 209.692 75.9071 209.008 71.9874 208.285C69.1059 207.755 66.276 207.204 63.4892 206.636L72.7498 190.494L76.7125 183.585L81.3988 175.407L83.6515 171.481L85.6113 168.063L87.0457 161.693L88.1483 156.807L88.4025 155.679C88.4025 155.679 88.3766 153.906 88.5446 151.526C88.8031 147.918 89.5137 142.908 91.4693 140.553C91.8483 140.088 92.279 139.731 92.7657 139.503C93.7823 139.025 95.7894 139.352 98.3006 140.153L98.3652 142.348L98.8864 159.476L98.8864 159.476Z" fill="#2F2E41"/>
<path d="M87.6321 88.1519L87.3497 88.0721L73.4509 84.1467L62.3526 99.2431L69.7514 130.668L66.9769 143.3C66.9769 143.3 89.4818 137.446 98.4221 142.375C98.4221 142.375 99.0387 139.566 98.4221 138.198C97.8055 136.83 96.8807 131.136 97.8055 128.591C98.7304 126.047 95.9558 114.031 95.9558 114.031C95.9558 114.031 96.8807 106.021 92.873 102.016C88.8652 98.0107 87.6321 88.1518 87.6321 88.1518L87.6321 88.1519V88.1519Z" fill="#E6E6E6"/>
<path d="M83.7742 171.982C84.7708 175.842 87.5716 178.457 90.0296 177.823C92.4876 177.189 93.6716 173.546 92.6741 169.685C92.2968 168.137 91.5541 166.702 90.5081 165.5L86.0787 149.198L78.4682 151.438L83.6428 167.271C83.3095 168.829 83.3545 170.445 83.7742 171.982V171.982H83.7742Z" fill="#A0616A"/>
<path d="M85.7925 102.027C85.7925 102.027 81.4818 90.3857 76.7574 91.1436C72.0329 91.9016 67.7256 99.2192 67.7256 99.2192L71.1409 140.631L80.522 164.264L90.4728 160.343L85.3041 136.725L85.7925 102.027V102.027V102.027Z" fill="#E6E6E6"/>
<path opacity="0.7" d="M301.315 30.13V208.608C301.173 208.638 301.031 208.664 300.885 208.685C298.701 209.081 296.487 209.46 294.247 209.83C291.585 210.269 288.884 210.695 286.149 211.104C283.875 211.44 281.579 211.767 279.258 212.081C272.5 213.007 265.552 213.829 258.436 214.543C256.158 214.776 253.858 214.995 251.545 215.202C231.322 217.019 209.829 218 187.543 218C184.386 218 181.25 217.979 178.127 217.94C177.981 217.94 177.839 217.94 177.697 217.935V30.13H301.315Z" fill="#F2F2F2"/>
<path d="M300.885 89.0112V89.5407L300.941 89.4287C300.936 89.291 300.915 89.1533 300.885 89.0112ZM177.697 145.245L177.266 144.897V183.585H177.697V217.935C177.839 217.94 177.981 217.94 178.127 217.94V119.151C177.985 119.229 177.843 119.302 177.697 119.375V145.245ZM177.266 29.6995V217.927C177.408 217.931 177.55 217.935 177.697 217.935C177.839 217.94 177.981 217.94 178.127 217.94V30.5604H300.885V208.685C301.031 208.663 301.173 208.638 301.315 208.608C301.457 208.586 301.604 208.56 301.746 208.53V29.6995H177.266Z" fill="#3F3D56"/>
<path d="M188.248 165.078C192.768 165.078 196.432 161.416 196.432 156.9C196.432 152.383 192.768 148.721 188.248 148.721C183.728 148.721 180.064 152.383 180.064 156.9C180.064 161.416 183.728 165.078 188.248 165.078Z" fill="#3F3D56"/>
<path d="M187.188 154.633C190.126 157.33 193.9 158.001 195.617 156.132C197.334 154.264 196.344 150.564 193.405 147.866C192.245 146.773 190.841 145.973 189.309 145.533L176.717 134.264L171.551 140.282L184.513 150.752C185.082 152.241 185.999 153.572 187.188 154.633H187.188V154.633Z" fill="#FFB6B6"/>
<path d="M150.795 94.8419C150.795 94.8419 140.84 87.4183 137.289 90.6231C133.738 93.8279 134.108 102.31 134.108 102.31L159.52 135.198L180.257 149.926L186.472 141.225L169.276 124.22L150.795 94.8419L150.795 94.8419V94.8419Z" fill="#3E72F9"/>
<path d="M258.436 168.95V214.543C256.158 214.776 253.858 214.995 251.545 215.202V168.95H258.436Z" fill="#3F3D56"/>
<path d="M6.89164 168.95V189.655C4.48386 188.592 2.18377 187.498 0 186.383V168.95H6.89164Z" fill="#3F3D56"/>
<path d="M255.85 175.408H4.73602V183.586H255.85V175.408Z" fill="#3E72F9"/>
<path d="M311.494 54.5251C311.494 54.5251 306.9 57.2178 308.407 59.8807C309.913 62.5436 312.014 66.1708 310.589 67.3131C309.164 68.4555 306.811 73.4921 306.811 73.4921C306.811 73.4921 296.769 72.0904 297.711 79.8863C298.654 87.6821 303.372 88.745 299.328 92.1746C295.285 95.6042 303.531 99.706 303.531 99.706C303.531 99.706 309.224 97.9331 310.523 92.4811C311.821 87.0291 309.365 96.6498 310.189 97.3396C311.013 98.0295 314.212 102.576 316.475 96.531C318.739 90.4856 316.498 88.1417 319.489 84.5738C322.48 81.0058 324.513 75.2349 324.424 74.2261C324.335 73.2173 327.846 64.012 322.442 60.4219C317.039 56.8319 311.494 54.5251 311.494 54.5251H311.494Z" fill="#2F2E41"/>
<path d="M272.496 139.541C270.193 142.135 266.987 143.049 265.335 141.584C263.684 140.119 264.213 136.83 266.517 134.236C267.424 133.187 268.568 132.37 269.855 131.854L279.753 120.988L284.756 125.739L274.467 135.946C274.107 137.285 273.431 138.517 272.496 139.541H272.496Z" fill="#FFB6B6"/>
<path d="M301.439 88.4188C301.439 88.4188 307.442 82.9079 309.975 84.7631C312.507 86.6184 312.833 92.1804 312.833 92.1804L298.44 115.348L277.683 132.833L273.044 127.568L291.337 108.832L301.439 88.4188V88.4188V88.4188Z" fill="#3F3D56"/>
<path d="M313.605 75.9326L310.353 87.4836H328.201L322.323 73.251L313.605 75.9326Z" fill="#FFB6B6"/>
<path opacity="0.1" d="M313.605 75.9326L310.353 87.4836H328.201L322.323 73.251L313.605 75.9326Z" fill="black"/>
<path d="M322.655 114.051L333.12 138.759L297.703 137.011L300.11 114.051H322.655Z" fill="#FFB6B6"/>
<path d="M312.417 81.5694L327.185 80.9545L337.03 98.1728L328.416 125.845L298.264 128.92L301.529 102.232L303.187 87.1039L312.417 81.5694Z" fill="#3F3D56"/>
<path d="M337.031 161.938C336.32 165.377 335.549 170.091 334.796 175.2C334.404 177.86 334.016 180.628 333.646 183.379C332.689 190.434 331.837 197.377 331.272 202.103C326.586 203.317 321.714 204.475 316.671 205.569L314.065 183.379L313.104 175.2L312.109 166.738L311.661 175.2L311.226 183.379L309.977 206.963C307.277 207.506 304.533 208.026 301.746 208.53C301.604 208.56 301.457 208.586 301.315 208.608C301.173 208.638 301.031 208.663 300.885 208.685C298.701 209.081 296.487 209.46 294.247 209.83L293.877 183.379L293.76 175.2L293.342 145.525L296.982 133.507L298.08 133.408L300.885 133.154L301.315 133.115L301.746 133.072L329.64 130.541L330.57 130.455C330.57 130.455 331.234 131.751 332.147 133.907C332.224 134.088 332.306 134.277 332.388 134.471C333.176 136.365 334.115 138.823 334.972 141.599C336.105 145.25 337.1 149.451 337.432 153.63C337.656 156.467 337.578 159.291 337.031 161.938Z" fill="#2F2E41"/>
<path d="M338.12 150.719C337.861 154.176 335.865 156.846 333.663 156.68C331.461 156.515 329.887 153.578 330.147 150.119C330.232 148.736 330.647 147.393 331.358 146.203L332.642 131.565L339.503 132.314L337.508 146.665C338.033 147.948 338.243 149.338 338.12 150.719Z" fill="#FFB6B6"/>
<path d="M330.143 92.5241C330.143 92.5241 331.576 84.5049 334.716 84.4469C337.855 84.3888 341.487 88.6162 341.487 88.6162L344.087 115.761L338.178 142.241L331.295 140.862L334.485 114.88L330.143 92.5241L330.143 92.5241V92.5241Z" fill="#3F3D56"/>
<path d="M317.845 78.4427C323.781 78.4427 328.593 73.6335 328.593 67.7012C328.593 61.7688 323.781 56.9597 317.845 56.9597C311.909 56.9597 307.097 61.7688 307.097 67.7012C307.097 73.6335 311.909 78.4427 317.845 78.4427Z" fill="#FFB6B6"/>
<path d="M313.725 55.7066C313.725 55.7066 311.933 60.7193 314.8 61.7934C317.666 62.8676 321.607 64.2998 321.249 66.09C320.89 67.8803 322.323 73.251 322.323 73.251C322.323 73.251 313.725 78.6217 319.457 83.9925C325.19 89.3632 329.489 87.1501 328.593 92.3742C327.698 97.5983 336.655 95.45 336.655 95.45C336.655 95.45 339.879 90.4374 337.371 85.4247C334.863 80.412 339.163 89.3632 340.237 89.3632C341.312 89.3632 346.686 90.7954 344.537 84.7086C342.387 78.6217 339.163 78.2637 339.163 73.6091C339.163 68.9544 337.013 63.2256 336.296 62.5095C335.58 61.7934 332.355 52.4842 325.906 53.2003C319.457 53.9164 313.725 55.7066 313.725 55.7066H313.725V55.7066V55.7066Z" fill="#2F2E41"/>
<path d="M265.598 124.627L256.923 127.187L262.901 147.416L271.575 144.856L265.598 124.627Z" fill="#3E72F9"/>
<path d="M123.458 107.409L114.783 109.969L120.761 130.198L129.435 127.638L123.458 107.409Z" fill="#3E72F9"/>
<path d="M286.149 168.744V211.104C283.875 211.44 281.579 211.767 279.258 212.081V168.744H286.149Z" fill="#3F3D56"/>
<path d="M372 175.2H283.996V183.378H372V175.2Z" fill="#3E72F9"/>
<path d="M150.262 32.958C155.99 32.958 160.634 28.3174 160.634 22.5931C160.634 16.8687 155.99 12.2281 150.262 12.2281C144.534 12.2281 139.89 16.8687 139.89 22.5931C139.89 28.3174 144.534 32.958 150.262 32.958Z" fill="#E6E6E6"/>
<path d="M323.977 49.3062C329.705 49.3062 334.349 44.6657 334.349 38.9413C334.349 33.2169 329.705 28.5764 323.977 28.5764C318.249 28.5764 313.606 33.2169 313.606 38.9413C313.606 44.6657 318.249 49.3062 323.977 49.3062Z" fill="#E6E6E6"/>
<path d="M153.099 25.233C152.543 25.2042 151.988 25.1915 151.432 25.1871C151.801 23.1138 152.169 21.0405 152.538 18.9672C152.623 18.491 152.482 18.0083 152.043 17.7519C151.625 17.5074 151.084 17.5895 150.738 17.9202C149.715 18.8988 148.691 19.8773 147.667 20.8559C147.246 21.2576 147.262 21.9732 147.667 22.3777C148.087 22.7974 148.768 22.7806 149.19 22.3777C149.416 22.1615 149.642 21.9452 149.868 21.7289L149.245 25.2346C148.638 25.2648 148.031 25.3043 147.425 25.3638C146.846 25.4206 146.348 25.8177 146.348 26.4399C146.348 27.0339 146.841 27.5031 147.425 27.516C148.32 27.5359 149.214 27.5558 150.109 27.5757C150.332 27.5807 150.577 27.4909 150.775 27.3422C151.549 27.3349 152.324 27.3451 153.099 27.3853C153.68 27.4154 154.176 26.8691 154.176 26.3092C154.176 25.7013 153.682 25.2633 153.099 25.233V25.233Z" fill="white"/>
<path d="M233.914 20.7298C239.642 20.7298 244.285 16.0893 244.285 10.3649C244.285 4.64053 239.642 0 233.914 0C228.186 0 223.542 4.64053 223.542 10.3649C223.542 16.0893 228.186 20.7298 233.914 20.7298Z" fill="#3E72F9"/>
<path d="M236.751 13.0049C236.195 12.9761 235.639 12.9633 235.084 12.959C235.452 10.8857 235.821 8.81236 236.19 6.73905C236.275 6.26281 236.134 5.78018 235.695 5.52379C235.277 5.27922 234.736 5.36137 234.39 5.69207C233.366 6.67062 232.342 7.64916 231.319 8.62771C230.898 9.02948 230.914 9.74506 231.319 10.1496C231.739 10.5693 232.42 10.5525 232.841 10.1496C233.068 9.9333 233.294 9.71703 233.52 9.50075L232.897 13.0064C232.29 13.0367 231.683 13.0762 231.077 13.1356C230.498 13.1925 230 13.5896 230 14.2118C230 14.8058 230.493 15.2749 231.077 15.2879C231.972 15.3078 232.866 15.3277 233.761 15.3476C233.984 15.3526 234.229 15.2627 234.427 15.1141C235.201 15.1067 235.976 15.117 236.751 15.1571C237.332 15.1873 237.827 14.641 237.827 14.081C237.827 13.4732 237.334 13.0351 236.751 13.0049L236.751 13.0049Z" fill="white"/>
<path d="M81.4487 49.2867C87.1768 49.2867 91.8203 44.6462 91.8203 38.9218C91.8203 33.1974 87.1768 28.5569 81.4487 28.5569C75.7207 28.5569 71.0771 33.1974 71.0771 38.9218C71.0771 44.6462 75.7207 49.2867 81.4487 49.2867Z" fill="#E6E6E6"/>
<path d="M84.6035 41.8598C83.7118 41.3992 82.7384 41.1538 81.7606 41.1194C82.523 39.8926 83.0485 38.5152 83.2553 37.0947C83.3759 36.2467 83.3888 35.3987 82.7901 34.7143C82.3335 34.1892 81.6745 33.9869 81.0069 33.9223C80.4642 33.8706 79.8181 33.9051 79.3055 34.0772C78.4053 34.3699 78.1081 35.1448 78.1296 36.0272C78.1512 36.8666 78.2804 37.7189 78.8446 38.3774C79.2323 38.8294 79.7965 39.1264 80.3866 39.1738C79.8439 40.2929 79.0643 41.283 78.0779 42.1138C77.6687 42.4538 77.6817 43.1382 77.9918 43.5256C78.3278 43.9475 78.9006 44.068 79.383 43.8011C80.6494 43.0952 82.2345 43.0564 83.518 43.7193C84.0349 43.9862 84.6853 43.8528 84.9911 43.3319C85.2754 42.8498 85.1246 42.1267 84.6035 41.8598V41.8598ZM81.1835 36.35C81.1835 36.4189 81.1792 36.4835 81.1705 36.5523C81.1663 36.5911 81.1619 36.6255 81.1619 36.647C81.1576 36.6686 81.1576 36.6858 81.1533 36.6901V36.6944C81.1361 36.802 81.1103 36.9053 81.093 37.0086C80.9207 36.9613 80.7398 36.9569 80.5632 37.0172C80.546 37.0215 80.5374 37.0215 80.5245 37.0258H80.5115C80.4771 37 80.4512 36.9785 80.5202 37.0215C80.4814 36.9785 80.4599 36.9526 80.4469 36.9441L80.4168 36.8881C80.4211 36.9053 80.4211 36.9182 80.4211 36.9225C80.4125 36.9096 80.3996 36.8709 80.378 36.802C80.3565 36.7245 80.3349 36.6427 80.3177 36.5609C80.2919 36.4318 80.2876 36.2639 80.2832 36.0745C80.3005 36.0745 80.3177 36.0702 80.322 36.0702C80.4469 36.0616 80.5675 36.0573 80.6924 36.0573C80.7743 36.0573 80.8561 36.0659 80.938 36.0702C80.9595 36.0788 81.0973 36.109 81.149 36.1219C81.1576 36.1305 81.1705 36.1391 81.1792 36.1434C81.1878 36.1563 81.1921 36.1649 81.205 36.1778L81.1835 36.35L81.1835 36.35Z" fill="white"/>
<path d="M325.423 38.8035C326.147 38.2482 326.72 37.4304 326.659 36.4834C326.547 34.7357 324.833 33.9394 323.317 33.6467C322.744 33.5348 322.154 33.8059 321.99 34.3957C321.848 34.9251 322.171 35.6095 322.744 35.7215C322.989 35.7688 323.235 35.8248 323.48 35.8979C323.605 35.9324 323.73 35.9754 323.851 36.0271C323.885 36.0443 324.01 36.1002 324.032 36.1132C324.131 36.1648 324.234 36.2251 324.329 36.294C324.338 36.3069 324.389 36.3542 324.424 36.3886C324.346 36.3284 324.493 36.5565 324.493 36.5006C324.501 36.5221 324.506 36.5393 324.51 36.5565V36.5953C324.51 36.5996 324.484 36.6857 324.493 36.6857C324.424 36.7976 324.398 36.8492 324.355 36.8923C324.17 37.0989 324.04 37.1764 323.769 37.3055C323.14 37.6111 322.447 37.7747 321.818 38.0932C320.724 38.6528 321.486 40.3961 322.649 40.0604C322.705 40.0475 322.757 40.0303 322.813 40.0173C322.843 40.013 322.895 40.0044 322.929 40.0044C323.002 40.0044 323.071 40.0044 323.14 40.0087H323.166C323.308 40.0389 323.45 40.0733 323.584 40.1293C323.601 40.1379 323.627 40.1508 323.648 40.168C323.709 40.2025 323.773 40.2412 323.834 40.2756L323.903 40.323L323.907 40.3273C323.963 40.3703 324.01 40.422 324.062 40.4693C324.071 40.4779 324.118 40.5339 324.144 40.5597C324.165 40.5898 324.208 40.6458 324.213 40.6544C324.251 40.719 324.29 40.7879 324.325 40.8567C324.329 40.8696 324.333 40.8912 324.338 40.9127C324.346 40.9557 324.359 41.0031 324.372 41.0504C324.368 41.0676 324.376 41.1408 324.376 41.1882C324.376 41.2011 324.376 41.2097 324.381 41.2183C324.368 41.2743 324.351 41.3302 324.338 41.3862C324.333 41.3991 324.333 41.4034 324.333 41.4077C324.295 41.4809 324.251 41.5497 324.213 41.6186C324.208 41.6272 324.2 41.6315 324.195 41.6401V41.6445C324.148 41.6918 324.109 41.7349 324.062 41.7822C324.032 41.8123 323.993 41.8425 323.959 41.8726C323.933 41.8855 323.864 41.9372 323.847 41.9458C323.786 41.9759 323.73 42.0103 323.67 42.0405H323.666C323.661 42.0448 323.657 42.0448 323.653 42.0448C323.571 42.0706 323.493 42.0921 323.416 42.1137H323.403C323.33 42.1137 323.157 42.0921 323.157 42.1007C323.132 42.0964 323.097 42.0878 323.076 42.0835C323.028 42.0577 322.938 42.0103 322.938 42.0103C321.745 41.2958 320.659 43.1596 321.848 43.8699C323.778 45.0235 326.405 43.4739 326.526 41.2872C326.582 40.2928 326.125 39.419 325.423 38.8035H325.423Z" fill="white"/>
</g>
<defs>
<clipPath id="clip0_3_113">
<rect width="372" height="218" fill="white"/>
</clipPath>
</defs>
</svg>
