<svg width="15" height="17" viewBox="0 0 15 17" fill="none" xmlns="http://www.w3.org/2000/svg">
<path d="M7.49083 16.4504L1.36512 14.8059L0 0H15L13.6335 14.8037L7.49083 16.4504V16.4504Z" fill="#264DE4"/>
<path d="M12.4636 13.8611L13.6313 1.21069H7.5V15.1918L12.4636 13.8611V13.8611Z" fill="#2965F1"/>
<path d="M3.12947 6.70176L3.29775 8.51764H7.49999V6.70176H3.12947ZM2.79126 3.02637L2.96195 4.84226H7.49999V3.02637H2.79126V3.02637ZM7.49999 11.4178L7.49176 11.4199L5.40043 10.8739L5.26672 9.42562H3.38165L3.64472 12.2768L7.49135 13.3094L7.49999 13.3071V11.4178Z" fill="#EBEBEB"/>
<path d="M11.8585 6.70175L12.1974 3.02637H7.49347V4.84226H10.1395L9.96863 6.70175H7.49347V8.51764H9.80582L9.5878 10.8727L7.49341 11.4194V13.3085L11.3431 12.2768L11.3713 11.97L11.8127 7.18937L11.8585 6.70175V6.70175Z" fill="white"/>
</svg>
