<svg width="28" height="16" viewBox="0 0 28 16" fill="none" xmlns="http://www.w3.org/2000/svg">
<path d="M0 9.544V6.2L11.86 0V3.072L3.1 7.811L11.862 12.646V15.746L0 9.544ZM27.814 0.664L17.465 15.101H13.912L24.281 0.663L27.814 0.664ZM24.947 13.372C25.0643 13.3743 25.1807 13.3505 25.2877 13.3025C25.3947 13.2544 25.4898 13.1832 25.566 13.094C25.7378 12.8899 25.8263 12.6285 25.814 12.362C25.824 12.0894 25.736 11.8223 25.566 11.609C25.4943 11.5158 25.4021 11.4404 25.2966 11.3885C25.1911 11.3366 25.0751 11.3096 24.9575 11.3096C24.8399 11.3096 24.7239 11.3366 24.6184 11.3885C24.5129 11.4404 24.4207 11.5158 24.349 11.609C24.179 11.8223 24.091 12.0894 24.101 12.362C24.0884 12.6267 24.1726 12.8869 24.338 13.094C24.4117 13.1836 24.5049 13.2552 24.6104 13.3034C24.7159 13.3515 24.831 13.375 24.947 13.372V13.372ZM27.133 14.414C26.5361 14.9535 25.7597 15.2514 24.9551 15.2495C24.1505 15.2477 23.3754 14.9462 22.781 14.404C22.5075 14.1372 22.2902 13.8184 22.1418 13.4663C21.9934 13.1143 21.917 12.7361 21.917 12.354C21.917 11.9719 21.9934 11.5937 22.1418 11.2417C22.2902 10.8896 22.5075 10.5708 22.781 10.304C23.3752 9.76017 24.1515 9.45855 24.957 9.45855C25.7625 9.45855 26.5388 9.76017 27.133 10.304C27.4118 10.5677 27.6328 10.8865 27.782 11.24C27.9313 11.5936 28.0055 11.9743 28 12.358C28.0074 12.7416 27.9341 13.1225 27.7849 13.476C27.6357 13.8294 27.414 14.1477 27.134 14.41L27.133 14.414ZM16.821 4.933C16.9383 4.93528 17.0547 4.91152 17.1617 4.86346C17.2687 4.81539 17.3638 4.74419 17.44 4.655C17.6118 4.45086 17.7003 4.1895 17.688 3.923C17.698 3.65043 17.61 3.38329 17.44 3.17C17.3681 3.07701 17.2759 3.00173 17.1705 2.94993C17.065 2.89813 16.949 2.8712 16.8315 2.8712C16.714 2.8712 16.598 2.89813 16.4925 2.94993C16.3871 3.00173 16.2949 3.07701 16.223 3.17C16.053 3.38329 15.965 3.65043 15.975 3.923C15.9624 4.1877 16.0466 4.44792 16.212 4.655C16.2857 4.74458 16.3789 4.81618 16.4844 4.86436C16.5899 4.91253 16.705 4.93601 16.821 4.933ZM19.007 5.972C18.4101 6.5115 17.6337 6.80936 16.8291 6.80751C16.0245 6.80566 15.2494 6.50423 14.655 5.962C14.3815 5.6952 14.1642 5.37638 14.0158 5.02432C13.8674 4.67225 13.791 4.29406 13.791 3.912C13.791 3.52994 13.8674 3.15175 14.0158 2.79968C14.1642 2.44762 14.3815 2.1288 14.655 1.862C15.2492 1.31817 16.0255 1.01655 16.831 1.01655C17.6365 1.01655 18.4128 1.31817 19.007 1.862C19.2867 2.12686 19.5082 2.44709 19.6573 2.80228C19.8064 3.15748 19.8799 3.53984 19.873 3.925C19.8797 4.30777 19.806 4.68768 19.6569 5.04025C19.5077 5.39283 19.2863 5.71023 19.007 5.972V5.972Z" fill="#90A93A"/>
</svg>
