<svg width="18" height="13" viewBox="0 0 18 13" fill="none" xmlns="http://www.w3.org/2000/svg">
<path d="M16.875 0H1.125C0.826631 0 0.540483 0.114137 0.329505 0.317301C0.118526 0.520465 0 0.796015 0 1.08333V11.9167C0 12.204 0.118526 12.4795 0.329505 12.6827C0.540483 12.8859 0.826631 13 1.125 13H16.875C17.1734 13 17.4595 12.8859 17.6705 12.6827C17.8815 12.4795 18 12.204 18 11.9167V1.08333C18 0.796015 17.8815 0.520465 17.6705 0.317301C17.4595 0.114137 17.1734 0 16.875 0V0ZM16.0087 11.9167H2.05875L5.99625 7.995L5.18625 7.24208L1.125 11.2883V1.90667L8.11688 8.60708C8.32766 8.80886 8.61279 8.92211 8.91 8.92211C9.20721 8.92211 9.49234 8.80886 9.70312 8.60708L16.875 1.73875V11.2179L12.735 7.23125L11.9419 7.995L16.0087 11.9167ZM1.86187 1.08333H15.9637L8.91 7.83792L1.86187 1.08333Z" fill="black"/>
</svg>
