<svg width="15" height="18" viewBox="0 0 15 18" fill="none" xmlns="http://www.w3.org/2000/svg">
<path d="M4.86531 4.09091C4.86531 2.69182 6.01154 1.55455 7.42166 1.55455C8.83178 1.55455 9.97801 2.69182 9.97801 4.09091V5.72727H6.13524L7.7845 7.36364H12.3694V11.9127L14.0187 13.5491V7.36364C14.0187 6.46364 13.2765 5.72727 12.3694 5.72727H11.5448V4.09091C11.5448 1.83273 9.69764 0 7.42166 0C5.50852 0 3.90874 1.30091 3.44695 3.06L4.86531 4.46727V4.09091ZM1.16273 3.11727L0 4.27091L1.68224 5.94C1.17097 6.21818 0.824629 6.75 0.824629 7.36364V15.5455C0.824629 16.4455 1.56679 17.1818 2.47389 17.1818H13.0126L13.8373 18L15 16.8464L1.16273 3.11727ZM2.47389 15.5455V7.36364H3.1171L11.3634 15.5455H2.47389Z" fill="#3E72F9"/>
</svg>
