<svg width="24" height="24" viewBox="0 0 24 24" fill="none" xmlns="http://www.w3.org/2000/svg">
<g clip-path="url(#clip0_20_591)">
<path d="M24 17.8909C23.6507 18.018 23.2651 18.0178 22.916 17.8901C22.5669 17.7624 22.2785 17.5162 22.105 17.1979L18.655 12.6058L18.155 11.9638L14.152 17.2037C13.989 17.5086 13.7162 17.746 13.3845 17.8714C13.0529 17.9968 12.6851 18.0017 12.35 17.8851L17.508 11.2246L12.71 5.20802C13.055 5.08835 13.4323 5.08677 13.7784 5.20353C14.1244 5.32028 14.4181 5.54825 14.61 5.84904L18.186 10.4979L21.782 5.86829C21.9463 5.56875 22.2192 5.33775 22.5488 5.21921C22.8785 5.10067 23.2419 5.10285 23.57 5.22534L21.708 7.60368L19.186 10.7636C19.116 10.8237 19.0599 10.8974 19.0216 10.9798C18.9832 11.0623 18.9633 11.1516 18.9633 11.2419C18.9633 11.3323 18.9832 11.4216 19.0216 11.504C19.0599 11.5865 19.116 11.6602 19.186 11.7203L23.99 17.8918L24 17.8909ZM0.002012 11.1418L0.422012 9.14464C1.57601 5.19551 6.28001 3.55252 9.51601 5.99727C11.411 7.43043 11.884 9.45938 11.791 11.7463H1.11601C0.943012 15.8302 4.00501 18.2961 7.92001 17.0362C8.55467 16.8163 9.12275 16.4483 9.57337 15.9652C10.024 15.4821 10.3431 14.899 10.502 14.268C10.709 13.627 11.05 13.5173 11.676 13.7021C11.5717 14.484 11.2845 15.233 10.8361 15.8926C10.3876 16.5523 9.78963 17.1056 9.08701 17.5107C7.92643 18.1217 6.59484 18.3639 5.28264 18.2026C3.97043 18.0413 2.74481 17.4848 1.78101 16.6127C0.828041 15.5803 0.252088 14.2762 0.141012 12.8994C0.141012 12.6732 0.061012 12.4614 0.007012 12.2583C0.00214403 11.8865 -0.000189357 11.5146 1.19963e-05 11.1428L0.002012 11.1418ZM1.12901 10.8666H10.783C10.723 7.90591 8.78201 5.80573 6.19301 5.78648C3.31101 5.74798 1.24901 7.80196 1.12201 10.8531L1.12901 10.8666Z" fill="#3E72F9"/>
</g>
<defs>
<clipPath id="clip0_20_591">
<rect width="24" height="23.1" fill="white"/>
</clipPath>
</defs>
</svg>
