<svg width="13" height="20" viewBox="0 0 13 20" fill="none" xmlns="http://www.w3.org/2000/svg">
<path d="M3.24999 19.345C5.04398 19.345 6.49997 17.9006 6.49997 16.1209V12.8967H3.24999C1.45599 12.8967 0 14.3411 0 16.1209C0 17.9006 1.45599 19.345 3.24999 19.345Z" fill="#0ACF83"/>
<path d="M0 9.67213C0 7.89241 1.45599 6.448 3.24999 6.448H6.49997V12.8963H3.24999C1.45599 12.8963 0 11.4518 0 9.67213Z" fill="#A259FF"/>
<path d="M0 3.22413C0 1.44441 1.45599 0 3.24999 0H6.49997V6.44825H3.24999C1.45599 6.44825 0 5.00385 0 3.22413Z" fill="#F24E1E"/>
<path d="M6.5 0H9.74999C11.544 0 13 1.44441 13 3.22413C13 5.00385 11.544 6.44825 9.74999 6.44825H6.5V0Z" fill="#FF7262"/>
<path d="M13 9.67213C13 11.4518 11.544 12.8963 9.74999 12.8963C7.95599 12.8963 6.5 11.4518 6.5 9.67213C6.5 7.89241 7.95599 6.448 9.74999 6.448C11.544 6.448 13 7.89241 13 9.67213Z" fill="#1ABCFE"/>
</svg>
