<svg width="421" height="123" viewBox="0 0 421 123" fill="none" xmlns="http://www.w3.org/2000/svg">
<path d="M14.7829 80.3581L28.6849 64.9627L74.7549 109.566L47.6047 109.566L14.7829 80.3581Z" fill="url(#paint0_linear_83_2133)"/>
<path d="M15.6778 81.0698L5.97589e-06 67.4347L60.6916 0.338627L68.0358 22.5191L15.6778 81.0698Z" fill="url(#paint1_linear_83_2133)"/>
<path d="M48.8463 84.6172L33.9576 70.5092L63.4144 37.1587L74.1634 55.56L48.8463 84.6172Z" fill="url(#paint2_linear_83_2133)"/>
<path d="M133.41 51.304V85H125.202V64.792L117.666 85H111.042L103.458 64.744V85H95.2503V51.304H104.946L114.402 74.632L123.762 51.304H133.41ZM161.249 51.304V57.88H147.521V64.984H157.793V71.368H147.521V85H139.313V51.304H161.249ZM182.747 85L175.739 72.28H173.771V85H165.563V51.304H179.339C181.995 51.304 184.251 51.768 186.107 52.696C187.995 53.624 189.403 54.904 190.331 56.536C191.259 58.136 191.723 59.928 191.723 61.912C191.723 64.152 191.083 66.152 189.803 67.912C188.555 69.672 186.699 70.92 184.235 71.656L192.011 85H182.747ZM173.771 66.472H178.859C180.363 66.472 181.483 66.104 182.219 65.368C182.987 64.632 183.371 63.592 183.371 62.248C183.371 60.968 182.987 59.96 182.219 59.224C181.483 58.488 180.363 58.12 178.859 58.12H173.771V66.472ZM195.243 71.56C195.243 68.808 195.755 66.392 196.779 64.312C197.835 62.232 199.259 60.632 201.051 59.512C202.843 58.392 204.843 57.832 207.051 57.832C208.939 57.832 210.587 58.216 211.995 58.984C213.435 59.752 214.539 60.76 215.307 62.008V58.216H223.515V85H215.307V81.208C214.507 82.456 213.387 83.464 211.947 84.232C210.539 85 208.891 85.384 207.003 85.384C204.827 85.384 202.843 84.824 201.051 83.704C199.259 82.552 197.835 80.936 196.779 78.856C195.755 76.744 195.243 74.312 195.243 71.56ZM215.307 71.608C215.307 69.56 214.731 67.944 213.579 66.76C212.459 65.576 211.083 64.984 209.451 64.984C207.819 64.984 206.427 65.576 205.275 66.76C204.155 67.912 203.595 69.512 203.595 71.56C203.595 73.608 204.155 75.24 205.275 76.456C206.427 77.64 207.819 78.232 209.451 78.232C211.083 78.232 212.459 77.64 213.579 76.456C214.731 75.272 215.307 73.656 215.307 71.608ZM263.629 57.928C266.957 57.928 269.597 58.936 271.549 60.952C273.533 62.968 274.525 65.768 274.525 69.352V85H266.365V70.456C266.365 68.728 265.901 67.4 264.973 66.472C264.077 65.512 262.829 65.032 261.229 65.032C259.629 65.032 258.365 65.512 257.437 66.472C256.541 67.4 256.093 68.728 256.093 70.456V85H247.933V70.456C247.933 68.728 247.469 67.4 246.541 66.472C245.645 65.512 244.397 65.032 242.797 65.032C241.197 65.032 239.933 65.512 239.005 66.472C238.109 67.4 237.661 68.728 237.661 70.456V85H229.453V58.216H237.661V61.576C238.493 60.456 239.581 59.576 240.925 58.936C242.269 58.264 243.789 57.928 245.485 57.928C247.501 57.928 249.293 58.36 250.861 59.224C252.461 60.088 253.709 61.32 254.605 62.92C255.533 61.448 256.797 60.248 258.397 59.32C259.997 58.392 261.741 57.928 263.629 57.928ZM278.634 71.56C278.634 68.808 279.146 66.392 280.17 64.312C281.226 62.232 282.65 60.632 284.442 59.512C286.234 58.392 288.234 57.832 290.442 57.832C292.33 57.832 293.978 58.216 295.386 58.984C296.826 59.752 297.93 60.76 298.698 62.008V58.216H306.906V85H298.698V81.208C297.898 82.456 296.778 83.464 295.338 84.232C293.93 85 292.282 85.384 290.394 85.384C288.218 85.384 286.234 84.824 284.442 83.704C282.65 82.552 281.226 80.936 280.17 78.856C279.146 76.744 278.634 74.312 278.634 71.56ZM298.698 71.608C298.698 69.56 298.122 67.944 296.97 66.76C295.85 65.576 294.474 64.984 292.842 64.984C291.21 64.984 289.818 65.576 288.666 66.76C287.546 67.912 286.986 69.512 286.986 71.56C286.986 73.608 287.546 75.24 288.666 76.456C289.818 77.64 291.21 78.232 292.842 78.232C294.474 78.232 295.85 77.64 296.97 76.456C298.122 75.272 298.698 73.656 298.698 71.608ZM311.212 71.56C311.212 68.808 311.724 66.392 312.748 64.312C313.804 62.232 315.228 60.632 317.02 59.512C318.812 58.392 320.812 57.832 323.02 57.832C324.78 57.832 326.38 58.2 327.82 58.936C329.292 59.672 330.444 60.664 331.276 61.912V49.48H339.484V85H331.276V81.16C330.508 82.44 329.404 83.464 327.964 84.232C326.556 85 324.908 85.384 323.02 85.384C320.812 85.384 318.812 84.824 317.02 83.704C315.228 82.552 313.804 80.936 312.748 78.856C311.724 76.744 311.212 74.312 311.212 71.56ZM331.276 71.608C331.276 69.56 330.7 67.944 329.548 66.76C328.428 65.576 327.052 64.984 325.42 64.984C323.788 64.984 322.396 65.576 321.244 66.76C320.124 67.912 319.564 69.512 319.564 71.56C319.564 73.608 320.124 75.24 321.244 76.456C322.396 77.64 323.788 78.232 325.42 78.232C327.052 78.232 328.428 77.64 329.548 76.456C330.7 75.272 331.276 73.656 331.276 71.608ZM343.79 71.56C343.79 68.808 344.302 66.392 345.326 64.312C346.382 62.232 347.806 60.632 349.598 59.512C351.39 58.392 353.39 57.832 355.598 57.832C357.486 57.832 359.134 58.216 360.542 58.984C361.982 59.752 363.086 60.76 363.854 62.008V58.216H372.062V85H363.854V81.208C363.054 82.456 361.934 83.464 360.494 84.232C359.086 85 357.438 85.384 355.55 85.384C353.374 85.384 351.39 84.824 349.598 83.704C347.806 82.552 346.382 80.936 345.326 78.856C344.302 76.744 343.79 74.312 343.79 71.56ZM363.854 71.608C363.854 69.56 363.278 67.944 362.126 66.76C361.006 65.576 359.63 64.984 357.998 64.984C356.366 64.984 354.974 65.576 353.822 66.76C352.702 67.912 352.142 69.512 352.142 71.56C352.142 73.608 352.702 75.24 353.822 76.456C354.974 77.64 356.366 78.232 357.998 78.232C359.63 78.232 361.006 77.64 362.126 76.456C363.278 75.272 363.854 73.656 363.854 71.608ZM394.32 57.928C397.456 57.928 399.952 58.952 401.808 61C403.696 63.016 404.64 65.8 404.64 69.352V85H396.48V70.456C396.48 68.664 396.016 67.272 395.088 66.28C394.16 65.288 392.912 64.792 391.344 64.792C389.776 64.792 388.528 65.288 387.6 66.28C386.672 67.272 386.208 68.664 386.208 70.456V85H378V58.216H386.208V61.768C387.04 60.584 388.16 59.656 389.568 58.984C390.976 58.28 392.56 57.928 394.32 57.928Z" fill="#3E72F9"/>
<defs>
<linearGradient id="paint0_linear_83_2133" x1="23.9157" y1="72.636" x2="40.6474" y2="90.6351" gradientUnits="userSpaceOnUse">
<stop stop-color="#2253D6"/>
<stop offset="1" stop-color="#3B71FE"/>
</linearGradient>
<linearGradient id="paint1_linear_83_2133" x1="13.0967" y1="60.001" x2="37.7253" y2="81.8208" gradientUnits="userSpaceOnUse">
<stop stop-color="#3E72F9"/>
<stop offset="1" stop-color="#3B71FE" stop-opacity="0.94"/>
</linearGradient>
<linearGradient id="paint2_linear_83_2133" x1="41.0073" y1="77.7996" x2="70.781" y2="43.5655" gradientUnits="userSpaceOnUse">
<stop stop-color="#2351CA"/>
<stop offset="1" stop-color="#3A6FF8"/>
</linearGradient>
</defs>
</svg>
