<svg width="32.41" height="32.41" viewBox="0 0 56 56" fill="none" xmlns="http://www.w3.org/2000/svg">
<path fill-rule="evenodd" clip-rule="evenodd" d="M28 0C12.53 0 0 12.8469 0 28.7082C0 41.4116 8.015 52.1413 19.145 55.9452C20.545 56.1964 21.07 55.3351 21.07 54.5815C21.07 53.8997 21.035 51.6389 21.035 49.2346C14 50.5624 12.18 47.4762 11.62 45.8614C11.305 45.036 9.94 42.4882 8.75 41.8064C7.77 41.2681 6.37 39.9403 8.715 39.9044C10.92 39.8685 12.495 41.9858 13.02 42.847C15.54 47.1891 19.565 45.969 21.175 45.2155C21.42 43.3494 22.155 42.0934 22.96 41.3757C16.73 40.658 10.22 38.1819 10.22 27.201C10.22 24.079 11.305 21.4953 13.09 19.4857C12.81 18.768 11.83 15.8254 13.37 11.878C13.37 11.878 15.715 11.1244 21.07 14.8206C23.31 14.1747 25.69 13.8517 28.07 13.8517C30.45 13.8517 32.83 14.1747 35.07 14.8206C40.425 11.0886 42.77 11.878 42.77 11.878C44.31 15.8254 43.33 18.768 43.05 19.4857C44.835 21.4953 45.92 24.0431 45.92 27.201C45.92 38.2178 39.375 40.658 33.145 41.3757C34.16 42.2729 35.035 43.9954 35.035 46.6867C35.035 50.5265 35 53.6126 35 54.5815C35 55.3351 35.525 56.2322 36.925 55.9452C42.4834 54.021 47.3134 50.3583 50.7352 45.4723C54.157 40.5864 55.9983 34.7233 56 28.7082C56 12.8469 43.47 0 28 0Z" fill="#3E72F9"/>
</svg>
