<svg width="48" height="39" viewBox="0 0 48 39" fill="none" xmlns="http://www.w3.org/2000/svg">
<g clip-path="url(#clip0_1_61)">
<path d="M30.0075 14.8383C29.19 15.0516 28.515 15.1658 27.825 15.4172C27.2775 15.5619 26.7225 15.7142 26.085 15.8818L26.04 15.8894C25.725 15.9808 25.695 15.9885 25.4025 15.6457C25.05 15.242 24.795 14.983 24.3075 14.7392C22.83 14.008 21.405 14.2213 20.0775 15.0973C18.4875 16.1408 17.67 17.6871 17.6925 19.6066C17.715 21.5109 18.9975 23.0725 20.7825 23.3314C22.4325 23.5447 23.7675 22.981 24.8175 21.7699C24.975 21.5719 25.1175 21.3662 25.275 21.1377C25.335 21.0615 25.3875 20.9777 25.4475 20.8863H20.94C20.4525 20.8863 20.3325 20.5816 20.4975 20.1779C20.7975 19.4391 21.36 18.2051 21.69 17.5881C21.7575 17.451 21.9225 17.1463 22.2075 17.1463H29.79C30.1275 16.1256 30.675 15.0973 31.41 14.1223C33.1125 11.8447 35.1075 10.6564 37.95 10.1613C40.335 9.73475 42.5775 9.97089 44.6175 11.3725C46.4625 12.6521 47.6025 14.3889 47.91 16.6664C48.3075 19.8732 47.3925 22.4783 45.1575 24.7101C43.68 26.3021 41.79 27.3 39.615 27.7494C39.195 27.8256 38.7825 27.8637 38.3775 27.9017C38.16 27.917 37.95 27.9398 37.74 27.9627C35.6175 27.917 33.675 27.3 32.04 25.8756C30.8925 24.8625 30.0975 23.6209 29.7075 22.1812C29.43 22.7373 29.1075 23.2781 28.6575 23.7885C27.0375 26.0432 24.84 27.4447 22.065 27.818C19.77 28.1303 17.6475 27.6809 15.7725 26.2564C14.0475 24.9234 13.065 23.1715 12.81 20.9853C12.5025 18.3955 13.2525 16.0037 14.79 14.0308C16.455 11.8219 18.6525 10.4203 21.3375 9.92518C23.535 9.45292 25.635 9.78046 27.5325 11.0906C28.77 11.9209 29.655 13.0558 30.24 14.4346C30.3825 14.6478 30.285 14.7697 30.0075 14.8383V14.8383ZM3.62251 15.2648C3.52876 15.2648 3.50551 15.2191 3.55201 15.143L4.04326 14.5031C4.08976 14.4346 4.20676 14.3889 4.30051 14.3889H12.645C12.735 14.3889 12.7575 14.4574 12.7125 14.526L12.315 15.143C12.27 15.2191 12.15 15.2877 12.0825 15.2877L3.62251 15.2648V15.2648ZM0.0934556 17.451C5.56111e-06 17.451 -0.0233944 17.3976 0.0234056 17.3291L0.514131 16.6892C0.560931 16.6207 0.677781 16.5674 0.771006 16.5674H11.43C11.52 16.5674 11.565 16.6435 11.5425 16.7121L11.355 17.2834C11.3325 17.3748 11.2425 17.4281 11.145 17.4281L0.0934556 17.451V17.451ZM5.67901 19.4924C5.63251 19.5609 5.65576 19.6295 5.74876 19.6295L10.845 19.6523C10.9125 19.6523 11.01 19.5838 11.01 19.4924L11.055 18.9211C11.055 18.8221 11.01 18.7535 10.9125 18.7535H6.24001C6.14626 18.7535 6.05326 18.8221 6.00601 18.8982L5.67901 19.4924V19.4924ZM43.29 18.1213C43.275 17.9232 43.2675 17.7557 43.2375 17.5881C42.8175 15.242 40.6875 13.909 38.4675 14.4346C36.2925 14.9297 34.89 16.3312 34.38 18.5631C33.96 20.4141 34.845 22.2879 36.525 23.0496C37.815 23.6209 39.0975 23.5523 40.335 22.9049C42.18 21.8689 43.185 20.4141 43.305 18.3726C43.2975 18.2812 43.2975 18.1975 43.29 18.1213V18.1213Z" fill="#3E72F9"/>
</g>
<defs>
<clipPath id="clip0_1_61">
<rect width="48" height="39" fill="white"/>
</clipPath>
</defs>
</svg>
