<svg width="16" height="17" viewBox="0 0 16 17" fill="none" xmlns="http://www.w3.org/2000/svg">
<path d="M15.0985 0L13.723 15.2982L7.54002 17L1.37408 15.3006L0 0H15.0985Z" fill="#E44D26"/>
<path d="M7.54932 15.6994L12.5455 14.3243L13.7209 1.25122H7.54932V15.6994Z" fill="#F16529"/>
<path d="M4.8754 5.004H7.54935V3.12744H2.80969L2.85491 3.63088L3.31951 8.80218H7.54935V6.92562H5.04816L4.8754 5.004V5.004ZM5.30141 9.74049H3.40396L3.66875 12.687L7.54065 13.754L7.54935 13.7517V11.7992L7.54106 11.8014L5.436 11.2371L5.30141 9.74049Z" fill="#EBEBEB"/>
<path d="M7.54266 8.80218H9.8702L9.65075 11.2359L7.5426 11.8008V13.7531L11.4176 12.687L11.446 12.3699L11.8902 7.42953L11.9363 6.92562H7.54266V8.80218ZM7.54266 4.99941V5.004H12.1083L12.1462 4.58223L12.2324 3.63088L12.2775 3.12744H7.54266V4.99947V4.99941Z" fill="white"/>
</svg>
