<svg width="21.45" height="21.45" viewBox="0 0 34 34" fill="none" xmlns="http://www.w3.org/2000/svg">
<path d="M16.9318 11.5325C13.9564 11.5325 11.5282 13.9607 11.5282 16.9362C11.5282 19.9117 13.9564 22.3399 16.9318 22.3399C19.9073 22.3399 22.3354 19.9117 22.3354 16.9362C22.3354 13.9607 19.9073 11.5325 16.9318 11.5325ZM33.1386 16.9362C33.1386 14.6985 33.1589 12.4811 33.0332 10.2474C32.9076 7.65298 32.3157 5.35042 30.4186 3.45324C28.5174 1.55201 26.2189 0.964206 23.6245 0.838538C21.3869 0.71287 19.1695 0.733139 16.9359 0.733139C14.6982 0.733139 12.4808 0.71287 10.2472 0.838538C7.65284 0.964206 5.35032 1.55606 3.45318 3.45324C1.55198 5.35447 0.964186 7.65298 0.838521 10.2474C0.712855 12.4851 0.733124 14.7025 0.733124 16.9362C0.733124 19.1698 0.712855 21.3913 0.838521 23.625C0.964186 26.2194 1.55603 28.522 3.45318 30.4191C5.35437 32.3204 7.65284 32.9082 10.2472 33.0338C12.4849 33.1595 14.7023 33.1392 16.9359 33.1392C19.1735 33.1392 21.3909 33.1595 23.6245 33.0338C26.2189 32.9082 28.5214 32.3163 30.4186 30.4191C32.3198 28.5179 32.9076 26.2194 33.0332 23.625C33.1629 21.3913 33.1386 19.1739 33.1386 16.9362V16.9362ZM16.9318 25.2505C12.3308 25.2505 8.61762 21.5373 8.61762 16.9362C8.61762 12.3351 12.3308 8.62184 16.9318 8.62184C21.5328 8.62184 25.246 12.3351 25.246 16.9362C25.246 21.5373 21.5328 25.2505 16.9318 25.2505ZM25.5865 10.2231C24.5123 10.2231 23.6448 9.35558 23.6448 8.28132C23.6448 7.20706 24.5123 6.33955 25.5865 6.33955C26.6608 6.33955 27.5283 7.20706 27.5283 8.28132C27.5286 8.53641 27.4786 8.78905 27.3811 9.02478C27.2836 9.26051 27.1406 9.4747 26.9603 9.65507C26.7799 9.83545 26.5657 9.97847 26.33 10.0759C26.0943 10.1734 25.8416 10.2234 25.5865 10.2231V10.2231Z" fill="#3E72F9"/>
</svg>
