<svg width="120" height="120" viewBox="0 0 120 120" fill="none" xmlns="http://www.w3.org/2000/svg">
<path d="M6.64652 90.4817L48.4465 114.773C49.3324 115.29 50.7597 115.29 51.6456 114.781L115.159 78.107C116.045 77.5984 116.045 76.77 115.159 76.2532L73.3593 51.9617C72.4815 51.4532 71.0543 51.4532 70.1684 51.9617L6.65473 88.6279C5.76882 89.1447 5.76061 89.9731 6.64652 90.4817Z" fill="#AABAFD"/>
<path d="M56.0414 92.9504C55.5419 93.2388 55.5448 93.7086 56.0411 93.997L66.345 99.9849C66.8412 100.273 67.6523 100.277 68.1518 99.9882L88.4566 88.2652C88.9561 87.9768 88.9532 87.507 88.4569 87.2186L78.1531 81.2306C77.6568 80.9422 76.8457 80.939 76.3462 81.2274L56.0414 92.9504Z" fill="#2E4277"/>
<path d="M5.99033 89.5631L5.99853 92.0082C5.99853 92.3363 6.21998 92.6726 6.65474 92.9269L48.4547 117.218C49.3406 117.727 50.7679 117.727 51.6538 117.218L115.167 80.5522C115.61 80.2979 115.832 79.9616 115.832 79.6171L115.824 77.1802C115.824 77.5165 115.602 77.8528 115.159 78.1071L51.6456 114.781C50.7597 115.29 49.3324 115.29 48.4465 114.773L6.64653 90.4817C6.20361 90.2275 5.99033 89.8994 5.99033 89.5631Z" fill="#798FFE"/>
<path d="M70.0448 3.59433C70.9298 3.08335 71.6497 3.49353 71.6525 4.51056L71.7658 49.1953C71.7686 50.2063 71.0535 51.451 70.1684 51.962L7.57005 88.0997C6.68498 88.6107 5.96515 88.1945 5.96227 87.1835L5.84904 42.4988C5.84616 41.4818 6.56131 40.2431 7.44638 39.7321L70.0448 3.59433Z" fill="#1B2A4F"/>
<path d="M4.16803 41.5248L4.28287 86.2078C4.28287 86.7081 4.46335 87.0691 4.75044 87.2331L6.42933 88.2095C6.1422 88.0455 5.96177 87.6846 5.96177 87.1841L5.84693 42.5012C5.84693 41.484 6.56057 40.2454 7.44648 39.7286L70.0452 3.59495C70.4881 3.34067 70.8901 3.31609 71.1854 3.48011L69.5065 2.50376C69.2194 2.3397 68.8093 2.36427 68.3663 2.61855L5.76758 38.7605C4.88167 39.269 4.16803 40.5077 4.16803 41.5248Z" fill="#384E85"/>
<path d="M8.10843 41.9539L8.21737 85.1221L69.5065 49.7402L69.3975 6.57202L8.10843 41.9539Z" fill="#384E85"/>
<path d="M8.10843 41.9539L8.12672 49.1945L69.4158 13.8126L69.3975 6.57202L8.10843 41.9539Z" fill="#AABAFD"/>
<path d="M59.2921 15.138C59.883 14.7969 60.3633 15.0589 60.3652 15.7378C60.3671 16.4167 59.8899 17.2434 59.299 17.5846C58.7183 17.9198 58.2379 17.646 58.236 16.9671C58.2341 16.2882 58.7114 15.4732 59.2921 15.138Z" fill="white"/>
<path d="M62.7048 13.1676C63.2855 12.8324 63.7659 13.0944 63.7678 13.7733C63.7697 14.4522 63.2925 15.2789 62.7118 15.6142C62.1209 15.9553 61.6405 15.6815 61.6386 15.0026C61.6367 14.3237 62.114 13.5088 62.7048 13.1676Z" fill="white"/>
<path d="M66.1075 11.2032C66.6984 10.862 67.1787 11.1241 67.1806 11.803C67.1825 12.4819 66.7053 13.3086 66.1144 13.6498C65.5235 13.9909 65.0432 13.7171 65.0413 13.0382C65.0393 12.3592 65.5166 11.5443 66.1075 11.2032Z" fill="white"/>
<path d="M19.4649 87.483L15.4528 89.8145L13.7245 88.8167L17.7365 86.4851L19.4649 87.483Z" fill="#384E85"/>
<path d="M62.6343 62.3958L58.6168 64.7305L56.8884 63.7327L60.906 61.3979L62.6343 62.3958Z" fill="#384E85"/>
<path d="M73.4267 56.1238L69.4092 58.4586L67.6808 57.4607L71.6984 55.126L73.4267 56.1238Z" fill="#384E85"/>
<path d="M66.226 70.724L62.214 73.0555L58.6466 70.9959L62.6586 68.6643L66.226 70.724Z" fill="#384E85"/>
<path d="M86.0147 69.6461L81.9972 71.9809L78.4242 69.918L82.4417 67.5833L86.0147 69.6461Z" fill="#384E85"/>
<path d="M91.4137 66.5085L87.3961 68.8432L79.325 64.1834L83.3426 61.8486L91.4137 66.5085Z" fill="#384E85"/>
<path d="M77.9248 58.7208L70.5171 63.0257L66.9441 60.9629L74.3518 56.658L77.9248 58.7208Z" fill="#384E85"/>
<path d="M69.1412 63.8253L65.1237 66.1601L61.5507 64.0972L65.5682 61.7625L69.1412 63.8253Z" fill="#384E85"/>
<path d="M82.4173 61.3145L73.0008 66.7868L69.4334 64.7272L78.8499 59.2549L82.4173 61.3145Z" fill="#384E85"/>
<path d="M71.6249 67.5863L67.6073 69.921L64.0399 67.8614L68.0575 65.5266L71.6249 67.5863Z" fill="#384E85"/>
<path d="M76.1231 70.1835L72.1055 72.5182L68.5325 70.4553L72.5501 68.1206L76.1231 70.1835Z" fill="#384E85"/>
<path d="M63.7424 66.9627L59.7248 69.2975L56.1518 67.2346L60.1694 64.8999L63.7424 66.9627Z" fill="#384E85"/>
<path d="M57.2355 65.5333L53.2234 67.8648L51.4951 66.867L55.5071 64.5354L57.2355 65.5333Z" fill="#384E85"/>
<path d="M51.8421 68.6675L47.8246 71.0023L46.0963 70.0044L50.1138 67.6697L51.8421 68.6675Z" fill="#384E85"/>
<path d="M54.5384 82.7272L50.5208 85.0619L46.9478 82.9991L50.9654 80.6643L54.5384 82.7272Z" fill="#384E85"/>
<path d="M46.4431 71.805L42.431 74.1365L40.7027 73.1387L44.7147 70.8071L46.4431 71.805Z" fill="#384E85"/>
<path d="M52.95 73.2345L48.938 75.566L45.365 73.5032L49.377 71.1716L52.95 73.2345Z" fill="#384E85"/>
<path d="M41.0496 74.9393L37.032 77.274L35.3037 76.2762L39.3213 73.9414L41.0496 74.9393Z" fill="#384E85"/>
<path d="M47.5565 76.369L43.539 78.7038L39.966 76.6409L43.9836 74.3062L47.5565 76.369Z" fill="#384E85"/>
<path d="M55.4337 76.9957L51.4216 79.3272L47.8542 77.2676L51.8663 74.936L55.4337 76.9957Z" fill="#384E85"/>
<path d="M35.6562 78.0735L31.6386 80.4083L29.9103 79.4104L33.9279 77.0757L35.6562 78.0735Z" fill="#384E85"/>
<path d="M42.1632 79.5033L38.1456 81.8381L34.5726 79.7752L38.5902 77.4404L42.1632 79.5033Z" fill="#384E85"/>
<path d="M59.9317 79.5927L55.9197 81.9242L52.3467 79.8613L56.3588 77.5298L59.9317 79.5927Z" fill="#384E85"/>
<path d="M50.0402 80.13L46.0227 82.4647L42.4552 80.405L46.4728 78.0703L50.0402 80.13Z" fill="#384E85"/>
<path d="M30.2573 81.2112L26.2398 83.546L24.5115 82.5481L28.529 80.2134L30.2573 81.2112Z" fill="#384E85"/>
<path d="M36.7642 82.6408L32.7466 84.9755L29.1736 82.9127L33.1912 80.5779L36.7642 82.6408Z" fill="#384E85"/>
<path d="M44.6468 83.2645L40.6293 85.5993L37.0619 83.5396L41.0794 81.2048L44.6468 83.2645Z" fill="#384E85"/>
<path d="M31.3707 85.775L27.3531 88.1098L23.7802 86.0469L27.7977 83.7122L31.3707 85.775Z" fill="#384E85"/>
<path d="M49.1449 85.8614L45.1274 88.1962L41.5544 86.1333L45.5719 83.7986L49.1449 85.8614Z" fill="#384E85"/>
<path d="M39.2479 86.4019L35.2303 88.7367L31.6629 86.677L35.6805 84.3423L39.2479 86.4019Z" fill="#384E85"/>
<path d="M43.746 88.9989L39.7285 91.3336L36.1555 89.2708L40.1731 86.936L43.746 88.9989Z" fill="#384E85"/>
<path d="M64.661 82.0553L44.2265 93.9305L40.6535 91.8677L61.088 79.9924L64.661 82.0553Z" fill="#384E85"/>
<path d="M38.3525 92.1332L34.3349 94.4679L30.762 92.4051L34.7795 90.0703L38.3525 92.1332Z" fill="#384E85"/>
<path d="M33.8544 89.5362L24.4434 95.0053L20.876 92.9456L30.287 87.4766L33.8544 89.5362Z" fill="#384E85"/>
<path d="M32.9535 95.2706L28.9415 97.6022L25.3685 95.5393L29.3806 93.2078L32.9535 95.2706Z" fill="#384E85"/>
<path d="M42.8506 94.7301L33.4396 100.199L29.8666 98.1363L39.2776 92.6672L42.8506 94.7301Z" fill="#384E85"/>
<path d="M24.8637 84.3455L20.8462 86.6802L19.1179 85.6824L23.1354 83.3477L24.8637 84.3455Z" fill="#384E85"/>
<path d="M68.0278 59.2613L64.0103 61.596L62.282 60.5982L66.2995 58.2634L68.0278 59.2613Z" fill="#384E85"/>
<path d="M58.3489 70.0973L54.3313 72.432L50.7583 70.3692L54.7759 68.0344L58.3489 70.0973Z" fill="#384E85"/>
<path d="M69.8288 79.0521L65.8112 81.3869L62.2383 79.324L66.2558 76.9893L69.8288 79.0521Z" fill="#384E85"/>
<path d="M65.3308 76.4552L61.3133 78.79L57.7403 76.7271L61.7578 74.3923L65.3308 76.4552Z" fill="#384E85"/>
<path d="M60.8327 73.8582L56.8151 76.193L53.2477 74.1333L57.2653 71.7986L60.8327 73.8582Z" fill="#384E85"/>
<path d="M80.6212 72.7804L76.6037 75.1151L73.0307 73.0523L77.0483 70.7175L80.6212 72.7804Z" fill="#384E85"/>
<path d="M75.2222 75.9179L71.2102 78.2494L67.6372 76.1865L71.6492 73.855L75.2222 75.9179Z" fill="#384E85"/>
<path d="M25.9717 88.9127L19.9509 92.4117L16.3779 90.3488L22.3988 86.8499L25.9717 88.9127Z" fill="#384E85"/>
<path d="M13.8058 53.364C14.5837 52.9149 15.0429 53.0132 15.3716 53.3109L14.9301 54.0268C14.6477 53.7422 14.2852 53.7654 13.8423 54.021C12.9412 54.5413 12.3697 55.6735 12.3728 56.7621C12.3759 57.8462 12.952 58.3247 13.8531 57.8044C14.2959 57.5488 14.6574 57.1406 14.9372 56.5402L15.3814 56.7492C15.0554 57.4293 14.5982 58.0568 13.8203 58.5059C12.5495 59.2396 11.6914 58.6092 11.6873 57.1578C11.6832 55.7064 12.535 54.0977 13.8058 53.364Z" fill="#D9DDF6"/>
<path d="M16.6706 55.7212C16.9325 55.57 17.1566 55.6977 17.1574 55.9986C17.1583 56.3039 16.9356 56.6851 16.6737 56.8363C16.408 56.9897 16.1878 56.8642 16.187 56.5589C16.1861 56.258 16.4049 55.8746 16.6706 55.7212Z" fill="#D9DDF6"/>
<path d="M17.0032 52.5216C17.193 52.195 17.1935 51.8411 17.0043 51.7312C16.8152 51.6212 16.508 51.7969 16.3182 52.1235C16.1284 52.4501 16.1278 52.804 16.317 52.9139C16.5062 53.0238 16.8134 52.8482 17.0032 52.5216Z" fill="#D9DDF6"/>
<path d="M18.1441 48.9089L20.2554 54.8702L19.7356 55.1704L17.6242 49.2091L18.1441 48.9089Z" fill="#D9DDF6"/>
<path d="M22.2589 45.8464L25.9446 47.9513L22.2828 54.2982L21.6917 53.9613L24.7739 48.6271L21.6716 46.8636L22.2589 45.8464Z" fill="#D9DDF6"/>
<path d="M30.0603 47.9597L30.0648 49.5439L26.21 51.7694L26.2055 50.1853L30.0603 47.9597Z" fill="#D9DDF6"/>
</svg>
