<svg width="32.41" height="32.41" viewBox="0 0 56 56" fill="none" xmlns="http://www.w3.org/2000/svg">
<path fill-rule="evenodd" clip-rule="evenodd" d="M6.92515e-07 4.67855C6.92515e-07 3.43772 0.492917 2.24772 1.37031 1.37032C2.24771 0.492923 3.43772 6.23716e-06 4.67855 6.23716e-06H51.3164C51.9313 -0.000998076 52.5404 0.119294 53.1087 0.353994C53.6771 0.588695 54.1936 0.933195 54.6286 1.36777C55.0637 1.80235 55.4087 2.31847 55.6441 2.88658C55.8794 3.45469 56.0003 4.06363 56 4.67855V51.3164C56.0007 51.9314 55.8801 52.5405 55.6451 53.1089C55.4101 53.6773 55.0654 54.1938 54.6306 54.6288C54.1958 55.0638 53.6795 55.4088 53.1113 55.6441C52.543 55.8794 51.9339 56.0003 51.3189 56H4.67855C4.06394 56 3.45535 55.8789 2.88756 55.6436C2.31976 55.4083 1.80389 55.0635 1.36941 54.6288C0.934938 54.1941 0.590372 53.678 0.355403 53.1101C0.120434 52.5422 -0.000333698 51.9335 6.92515e-07 51.3189V4.67855ZM22.1658 21.3513H29.7487V25.1593C30.8433 22.9702 33.6433 21 37.8509 21C45.9174 21 47.8291 25.3604 47.8291 33.3607V48.1804H39.6658V35.1833C39.6658 30.6269 38.5713 28.056 35.7916 28.056C31.9353 28.056 30.3316 30.828 30.3316 35.1833V48.1804H22.1658V21.3513ZM8.16582 47.8316H16.3316V21H8.16582V47.8291V47.8316ZM17.5 12.2487C17.5154 12.9479 17.391 13.6431 17.1341 14.2935C16.8771 14.944 16.4929 15.5365 16.0039 16.0364C15.5148 16.5364 14.9309 16.9336 14.2862 17.2047C13.6416 17.4759 12.9493 17.6156 12.25 17.6156C11.5507 17.6156 10.8584 17.4759 10.2138 17.2047C9.56913 16.9336 8.98517 16.5364 8.49614 16.0364C8.00711 15.5365 7.62285 14.944 7.36594 14.2935C7.10902 13.6431 6.9846 12.9479 7 12.2487C7.03022 10.8764 7.59662 9.57038 8.57789 8.61048C9.55916 7.65058 10.8773 7.11307 12.25 7.11307C13.6227 7.11307 14.9408 7.65058 15.9221 8.61048C16.9034 9.57038 17.4698 10.8764 17.5 12.2487V12.2487Z" fill="#3E72F9"/>
</svg>
