<svg width="16" height="20" viewBox="0 0 16 16" fill="none" xmlns="http://www.w3.org/2000/svg">
<g clip-path="url(#clip0_97_30035)">
<path d="M0 0H16V16H0V0Z" fill="#F7DF1E"/>
<path d="M4.20697 13.3707L5.43135 12.6297C5.6676 13.0485 5.88247 13.4029 6.39791 13.4029C6.89197 13.4029 7.20353 13.2096 7.20353 12.4579V7.34552H8.7071V12.4791C8.7071 14.0365 7.79422 14.7453 6.46235 14.7453C5.25953 14.7453 4.56135 14.1224 4.20691 13.3706M9.52378 13.2096L10.748 12.5008C11.0703 13.0271 11.4892 13.4137 12.2302 13.4137C12.8533 13.4137 13.2505 13.1022 13.2505 12.6726C13.2505 12.1571 12.8424 11.9745 12.155 11.6738L11.7792 11.5126C10.6944 11.0509 9.97485 10.4709 9.97485 9.24652C9.97485 8.11877 10.834 7.25952 12.1766 7.25952C13.1325 7.25952 13.8198 7.59252 14.3138 8.46246L13.1431 9.21433C12.8853 8.75252 12.6062 8.56996 12.1765 8.56996C11.7362 8.56996 11.4569 8.84921 11.4569 9.21433C11.4569 9.6654 11.7362 9.84808 12.3805 10.1273L12.7564 10.2884C14.0345 10.8362 14.7541 11.3946 14.7541 12.6511C14.7541 14.0045 13.6908 14.7455 12.2624 14.7455C10.8662 14.7455 9.96403 14.0796 9.52372 13.2096" fill="black"/>
</g>
<defs>
<clipPath id="clip0_97_30035">
<rect width="16" height="16" fill="white"/>
</clipPath>
</defs>
</svg>
