<svg width="109" height="29" viewBox="0 0 109 29" fill="none" xmlns="http://www.w3.org/2000/svg">
<g clip-path="url(#clip0_1_48)">
<path d="M8.44944 2.96655C7.34241 1.64114 6.38887 0.295111 6.19429 0.0154218C6.18966 0.0105284 6.18409 0.00663334 6.17793 0.00397218C6.17176 0.00131101 6.16513 -6.10352e-05 6.15842 -6.10352e-05C6.15171 -6.10352e-05 6.14508 0.00131101 6.13891 0.00397218C6.13275 0.00663334 6.12718 0.0105284 6.12255 0.0154218C5.92775 0.295111 4.97443 1.64114 3.8674 2.96655C-5.63497 15.1951 5.36402 23.4474 5.36402 23.4474L5.4562 23.5097C5.53816 24.7831 5.74318 26.6159 5.74318 26.6159H6.56323C6.56323 26.6159 6.76824 24.7935 6.85021 23.5097L6.9426 23.4371C6.95282 23.4474 17.9516 15.1951 8.44944 2.96655ZM6.1532 23.2612C6.1532 23.2612 5.66121 22.8365 5.52794 22.6193V22.5985L6.12255 9.28275C6.12255 9.24129 6.18407 9.24129 6.18407 9.28275L6.77846 22.5985V22.6193C6.64519 22.8365 6.1532 23.2612 6.1532 23.2612Z" fill="#01EC64"/>
<path d="M26.7369 20.544L22.1534 9.24843L22.1434 9.21729H18.5775V9.97644H19.1527C19.3275 9.97644 19.4918 10.0495 19.6153 10.1741C19.7386 10.2989 19.8003 10.4654 19.8003 10.6424L19.6975 22.0104C19.6975 22.3642 19.4099 22.6552 19.0603 22.6658L18.4746 22.6761V23.4249H21.9482V22.6761L21.5884 22.6658C21.239 22.6552 20.9512 22.3642 20.9512 22.0106V11.2971L25.9456 23.4247C26.0176 23.6015 26.1819 23.716 26.3671 23.716C26.5519 23.716 26.7163 23.6015 26.7882 23.4247L31.6698 11.5676L31.7418 22.0104C31.7418 22.3743 31.4539 22.6656 31.0942 22.6759H30.7242V23.4247H34.7938V22.6759H34.2388C33.8896 22.6759 33.6016 22.3743 33.5916 22.0207L33.5605 10.6522C33.5603 10.4796 33.6267 10.3136 33.7456 10.1894C33.8645 10.0652 34.0266 9.99255 34.1977 9.98675L34.7938 9.97623V9.21707H31.3202L26.7367 20.5438L26.7369 20.544ZM58.6946 22.4782C58.5813 22.3637 58.5194 22.2076 58.5194 22.0198V16.4355C58.5194 15.3728 58.2105 14.5391 57.5922 13.9454C56.9842 13.3514 56.1395 13.0494 55.0886 13.0494C53.615 13.0494 52.4509 13.6536 51.6368 14.8414C51.6266 14.8622 51.5957 14.8727 51.5649 14.8727C51.5338 14.8727 51.5133 14.8517 51.5133 14.8205L51.1321 13.3306H50.4932L48.855 14.2788V14.7997H49.2774C49.4732 14.7997 49.638 14.8517 49.7515 14.9561C49.8647 15.0602 49.9265 15.2164 49.9265 15.4351V22.0095C49.9265 22.197 49.8647 22.3534 49.7515 22.4681C49.638 22.5826 49.4834 22.6451 49.298 22.6451H48.8859V23.4056H52.6568V22.6451H52.2448C52.0592 22.6451 51.9046 22.5826 51.7914 22.4681C51.6781 22.3534 51.6162 22.197 51.6162 22.0095V17.6544C51.6162 17.1023 51.7399 16.55 51.9666 16.008C52.2035 15.4768 52.5537 15.0287 53.0174 14.6848C53.4811 14.341 54.0376 14.1744 54.6763 14.1744C55.3975 14.1744 55.9436 14.4036 56.2836 14.862C56.6236 15.3204 56.7988 15.9144 56.7988 16.6228V21.999C56.7988 22.1865 56.737 22.3427 56.6236 22.4574C56.5103 22.5721 56.3558 22.6344 56.1701 22.6344H55.7582V23.3951H59.5291V22.6346H59.1172C58.9626 22.6555 58.8183 22.5929 58.6946 22.4782ZM93.1473 10.0677C92.105 9.50772 90.9401 9.21707 89.6829 9.21707H84.7779V9.97429H85.258C85.4419 9.97429 85.6054 10.0469 85.7689 10.2127C85.9222 10.3685 86.004 10.5448 86.004 10.7315V21.8911C86.004 22.078 85.9224 22.2542 85.7689 22.4099C85.6157 22.5654 85.4419 22.6484 85.258 22.6484H84.7777V23.4056H89.6829C90.9401 23.4056 92.105 23.1152 93.1473 22.5549C94.1896 21.9949 95.0378 21.1651 95.6509 20.1073C96.2642 19.0496 96.581 17.7738 96.581 16.3216C96.581 14.8697 96.2642 13.6042 95.6511 12.5362C95.0278 11.4576 94.1896 10.6381 93.1475 10.0677H93.1473ZM94.6088 16.301C94.6088 17.6286 94.3738 18.7486 93.9137 19.6511C93.4539 20.5533 92.8407 21.2274 92.0846 21.6632C91.3284 22.0987 90.4902 22.3165 89.591 22.3165H88.5997C88.4158 22.3165 88.2523 22.2439 88.0888 22.078C87.9355 21.9223 87.8538 21.7461 87.8538 21.5595V11.0323C87.8538 10.8454 87.9253 10.6797 88.0888 10.5137C88.2421 10.3582 88.4158 10.2752 88.5997 10.2752H89.591C90.4902 10.2752 91.3282 10.4929 92.0846 10.9285C92.8407 11.3641 93.4539 12.0382 93.9137 12.9407C94.3736 13.8532 94.6088 14.9838 94.6088 16.301ZM108.176 17.0582C107.722 16.5292 106.847 16.0832 105.817 15.8445C107.239 15.129 107.969 14.123 107.969 12.8264C107.969 12.1214 107.785 11.4885 107.413 10.9493C107.043 10.4102 106.517 9.97429 105.848 9.67355C105.178 9.37281 104.395 9.21729 103.509 9.21729H97.9565V9.97429H98.3993C98.5847 9.97429 98.7497 10.0469 98.9145 10.2127C99.0691 10.3685 99.1515 10.5448 99.1515 10.7315V21.8911C99.1515 22.078 99.0691 22.2542 98.9145 22.4099C98.76 22.5654 98.5847 22.6484 98.3993 22.6484H97.9152V23.4056H103.942C104.859 23.4056 105.713 23.2501 106.486 22.9388C107.259 22.6277 107.877 22.1713 108.32 21.5698C108.773 20.9683 109 20.2317 109 19.3812C108.99 18.4687 108.722 17.6907 108.176 17.0582ZM101.263 22.0883C101.109 21.9328 101.026 21.7565 101.026 21.5698V16.5601H103.891C104.9 16.5601 105.672 16.8194 106.208 17.3377C106.744 17.8565 107.012 18.5306 107.012 19.3604C107.012 19.8581 106.887 20.3458 106.662 20.7917C106.425 21.248 106.074 21.611 105.601 21.8911C105.136 22.171 104.56 22.3165 103.891 22.3165H101.778C101.593 22.3165 101.428 22.2437 101.263 22.0881L101.263 22.0883ZM101.037 15.492V11.0426C101.037 10.8559 101.109 10.6901 101.274 10.524C101.428 10.3685 101.603 10.2856 101.789 10.2856H103.149C104.127 10.2856 104.848 10.5345 105.302 11.0116C105.755 11.499 105.981 12.1214 105.981 12.8887C105.981 13.6771 105.765 14.3097 105.343 14.7868C104.92 15.2534 104.282 15.492 103.437 15.492H101.037ZM44.3387 13.7106C43.5515 13.2766 42.6722 13.0489 41.7214 13.0489C40.7958 13.0489 39.9283 13.2549 39.1659 13.6762L39.1044 13.7106C38.3171 14.1447 37.6936 14.7752 37.2335 15.5711C36.7737 16.367 36.5384 17.2973 36.5384 18.3308C36.5384 19.3645 36.7734 20.2949 37.2335 21.0907C37.6936 21.8866 38.3171 22.5171 39.1044 22.951C39.8916 23.3852 40.7709 23.6127 41.7214 23.6127C42.6473 23.6127 43.5148 23.4069 44.277 22.9858L44.3387 22.9513C45.1258 22.5171 45.7495 21.8866 46.2096 21.0907C46.6694 20.2949 46.9047 19.3645 46.9047 18.3308C46.9047 17.2973 46.6694 16.367 46.2096 15.5711C45.7495 14.7752 45.126 14.1447 44.3387 13.7108V13.7106ZM45.0951 18.3308C45.0951 19.6023 44.7886 20.6358 44.175 21.3801C43.5719 22.1242 42.744 22.5066 41.7214 22.5066C40.7175 22.5066 39.9008 22.1378 39.3005 21.4196L39.2681 21.3801C38.6545 20.6358 38.3478 19.6023 38.3478 18.3308C38.3478 17.0827 38.6437 16.0636 39.2349 15.3225L39.2681 15.2817C39.871 14.5376 40.6994 14.155 41.7214 14.155C42.744 14.155 43.5719 14.5374 44.175 15.2817C44.7886 16.0261 45.0951 17.0595 45.0951 18.3308ZM80.5693 13.7106C79.782 13.2766 78.903 13.0489 77.9522 13.0489C77.0266 13.0489 76.1588 13.2549 75.3967 13.6762L75.335 13.7106C74.5479 14.1447 73.9243 14.7752 73.4643 15.5711C73.0042 16.367 72.769 17.2973 72.769 18.3308C72.769 19.3645 73.0042 20.2949 73.4643 21.0907C73.9241 21.8866 74.5479 22.5171 75.3352 22.951C76.1222 23.3852 77.0015 23.6127 77.9522 23.6127C78.8779 23.6127 79.7456 23.4069 80.5078 22.9858L80.5695 22.9513C81.3566 22.5171 81.9801 21.8866 82.4402 21.0907C82.9002 20.2949 83.1353 19.3645 83.1353 18.3308C83.1353 17.2973 82.9002 16.367 82.4402 15.5711C81.9803 14.7752 81.3464 14.1447 80.5693 13.7108V13.7106ZM81.3259 18.3308C81.3259 19.6023 81.0191 20.6358 80.4058 21.3801C79.8025 22.1242 78.9745 22.5066 77.9522 22.5066C76.948 22.5066 76.1314 22.1378 75.5312 21.4196L75.4987 21.3801C74.8853 20.6358 74.5786 19.6023 74.5786 18.3308C74.5786 17.0724 74.8743 16.0632 75.4655 15.3225L75.4987 15.2817C76.1018 14.5376 76.9299 14.155 77.9522 14.155C78.9745 14.155 79.8025 14.5374 80.4058 15.2817C81.0089 16.0261 81.3259 17.0595 81.3259 18.3308ZM65.9582 13.0492C65.1343 13.0492 64.3828 13.2255 63.7033 13.5787C63.0237 13.9316 62.4883 14.4094 62.1074 15.022C61.7286 15.6165 61.5283 16.3089 61.5309 17.0157C61.5309 17.6595 61.675 18.2513 61.9737 18.7811C62.2618 19.2897 62.6531 19.7155 63.1474 20.0684L61.675 22.083C61.4898 22.3322 61.4692 22.6645 61.6029 22.9345C61.747 23.2148 62.0148 23.3809 62.3237 23.3809H62.7459C62.3512 23.6496 62.0321 23.966 61.8068 24.339L61.7779 24.3882C61.5103 24.8345 61.3764 25.302 61.3764 25.7795C61.3764 26.6566 61.7538 27.3835 62.4987 27.9304L62.5398 27.9601C63.302 28.5104 64.3726 28.7908 65.7212 28.7908C66.6582 28.7908 67.554 28.635 68.3675 28.3339C69.1675 28.0415 69.8217 27.6117 70.3116 27.0544L70.3542 27.005C70.8587 26.4233 71.1163 25.7172 71.1163 24.9074C71.1163 24.0558 70.8074 23.4535 70.0868 22.8722C69.469 22.3841 68.5012 22.1247 67.2964 22.1247H63.1783C63.1722 22.1241 63.1665 22.1217 63.1619 22.1178L63.1576 22.1141L63.1557 22.1098C63.1536 22.1032 63.1502 22.0905 63.1576 22.083L64.2285 20.6293C64.482 20.7485 64.7479 20.839 65.0213 20.8991C65.2682 20.9511 65.5462 20.972 65.8552 20.972C66.7199 20.972 67.5025 20.7954 68.182 20.4424C68.8616 20.0893 69.4072 19.6117 69.7985 18.9989C70.1896 18.3968 70.3853 17.7218 70.3853 17.0054C70.3853 16.237 70.0148 14.8351 69.0057 14.1187C69.0057 14.1123 69.0093 14.1099 69.0123 14.1088L69.0159 14.1082L71.2296 14.3574V13.3295H67.6877C67.1319 13.1529 66.5551 13.0492 65.9582 13.0492ZM67.1936 19.5494C66.8023 19.757 66.3804 19.8712 65.9582 19.8712C65.2684 19.8712 64.6608 19.6221 64.1461 19.134C63.6313 18.6459 63.3739 17.9295 63.3739 17.0157C63.3739 16.1019 63.6313 15.3853 64.1461 14.8974C64.6608 14.4094 65.2682 14.1602 65.9582 14.1602C66.3725 14.1602 66.768 14.2556 67.1446 14.4553L67.1936 14.482C67.5849 14.6897 67.904 15.0117 68.1614 15.4375C68.4083 15.8632 68.5425 16.3927 68.5425 17.0157C68.5425 17.6492 68.4188 18.1787 68.1614 18.594C67.9144 19.0197 67.5849 19.3415 67.1936 19.5492V19.5494ZM64.4035 23.3706H67.1936C67.9657 23.3706 68.4601 23.5263 68.7894 23.8586C69.119 24.191 69.2835 24.6373 69.2835 25.1565C69.2835 25.9146 68.9851 26.5378 68.3879 27.0048C67.7907 27.4722 66.9877 27.7109 65.9993 27.7109C65.1343 27.7109 64.4137 27.5137 63.8885 27.1399C63.3635 26.7662 63.0959 26.1947 63.0959 25.468C63.0959 25.0111 63.2194 24.5854 63.4665 24.2116C63.7135 23.8378 64.0122 23.5678 64.4032 23.3706H64.4035Z" fill="#001E2B"/>
</g>
<defs>
<clipPath id="clip0_1_48">
<rect width="109" height="29" fill="white"/>
</clipPath>
</defs>
</svg>
