<svg width="9" height="19" viewBox="0 0 9 19" fill="none" xmlns="http://www.w3.org/2000/svg">
<g clip-path="url(#clip0_20_589)">
<path d="M6.17406 2.11509C5.36512 1.17024 4.6685 0.210587 4.52618 0.0113119C4.5228 0.00781463 4.51873 0.00503025 4.51423 0.00312771C4.50972 0.00122517 4.50486 0.000244141 4.49996 0.000244141C4.49505 0.000244141 4.4902 0.00122517 4.48569 0.00312771C4.48118 0.00503025 4.47711 0.00781463 4.47373 0.0113119C4.33142 0.210622 3.6348 1.17024 2.82582 2.11509C-4.11779 10.8328 3.91946 16.716 3.91946 16.716L3.98685 16.7603C4.04676 17.6682 4.19659 18.9748 4.19659 18.9748H4.79583C4.79583 18.9748 4.9456 17.6756 5.00554 16.7603L5.07297 16.7086C5.08046 16.716 13.1177 10.8328 6.17406 2.11509ZM4.4962 16.5831C4.4962 16.5831 4.13665 16.2805 4.03927 16.1255V16.1107L4.47373 6.61791C4.47373 6.58839 4.5187 6.58839 4.5187 6.61791L4.95312 16.1107V16.1255C4.85574 16.2805 4.4962 16.5832 4.4962 16.5832V16.5831Z" fill="#01EC64"/>
</g>
<defs>
<clipPath id="clip0_20_589">
<rect width="9" height="19" fill="white"/>
</clipPath>
</defs>
</svg>
