<svg width="18" height="20" viewBox="0 0 18 20" fill="none" xmlns="http://www.w3.org/2000/svg">
<path d="M8.5 19.9999C8.23604 19.9999 7.98967 19.9301 7.7609 19.8079L5.42028 18.429C5.06832 18.237 5.2443 18.1671 5.34989 18.1322C5.82502 17.9751 5.91301 17.9402 6.40575 17.6609C6.45861 17.626 6.529 17.6434 6.58172 17.6784L8.37682 18.7431C8.44721 18.7781 8.5352 18.7781 8.58799 18.7431L15.6098 14.711C15.6802 14.6761 15.7154 14.6063 15.7154 14.519V6.47211C15.7154 6.38484 15.6802 6.31502 15.6098 6.28011L8.58799 2.26538C8.5176 2.23048 8.42961 2.23048 8.37682 2.26538L1.35502 6.28018C1.28463 6.31509 1.24943 6.40236 1.24943 6.47218V14.519C1.24943 14.5888 1.28463 14.6761 1.35502 14.711L3.2733 15.8107C4.31163 16.3343 4.96267 15.7234 4.96267 15.1125V7.17029C4.96267 7.06557 5.05073 6.96084 5.17391 6.96084H6.07146C6.17704 6.96084 6.28263 7.04811 6.28263 7.17029V15.1124C6.28263 16.4914 5.52586 17.2943 4.20597 17.2943C3.80123 17.2943 3.48447 17.2943 2.58699 16.8579L0.739102 15.8107C0.281563 15.5488 0 15.06 0 14.5364V6.48963C0 5.966 0.281563 5.47727 0.739102 5.21539L7.7609 1.18327C8.20084 0.938909 8.79916 0.938909 9.2391 1.18327L16.2609 5.21539C16.7184 5.47721 17 5.96593 17 6.48963V14.5365C17 15.0601 16.7184 15.5488 16.2609 15.8107L9.2391 19.8429C9.01033 19.9476 8.74637 20 8.5 20V19.9999ZM10.6646 14.4666C7.58486 14.4666 6.95134 13.0702 6.95134 11.8833C6.95134 11.7785 7.03933 11.6738 7.16251 11.6738H8.07759C8.18318 11.6738 8.27123 11.7436 8.27123 11.8484C8.41201 12.7734 8.81676 13.2273 10.6822 13.2273C12.1604 13.2273 12.794 12.8957 12.794 12.1102C12.794 11.6564 12.6181 11.3247 10.3126 11.0977C8.39441 10.9058 7.19771 10.4868 7.19771 8.9683C7.19771 7.55436 8.39435 6.71654 10.4006 6.71654C12.6532 6.71654 13.7619 7.48454 13.9027 9.16024C13.9027 9.2126 13.8851 9.26496 13.8499 9.31733C13.8147 9.35223 13.7619 9.38714 13.7091 9.38714H12.794C12.706 9.38714 12.6181 9.31733 12.6004 9.23005C12.3892 8.27006 11.8437 7.95588 10.4006 7.95588C8.78163 7.95588 8.58799 8.51442 8.58799 8.93333C8.58799 9.43957 8.81676 9.5966 10.9989 9.87587C13.1636 10.1551 14.1842 10.5567 14.1842 12.0578C14.1666 13.5939 12.8996 14.4666 10.6646 14.4666Z" fill="#539E43"/>
</svg>
