<svg width="17" height="19" viewBox="0 0 17 19" fill="none" xmlns="http://www.w3.org/2000/svg">
<path d="M16.9365 10.8052C16.8344 10.4867 16.5671 10.2649 16.2213 10.2116C16.0583 10.1866 15.8716 10.1973 15.6506 10.2442C15.2655 10.326 14.9797 10.3572 14.7712 10.3632C15.5583 8.99411 16.1983 7.43282 16.5667 5.96311C17.1625 3.58664 16.8441 2.50401 16.4721 2.01431C15.4876 0.718138 14.0511 0.0218218 12.3182 0.000515844C11.3937 -0.0111305 10.5822 0.176924 10.1588 0.312159C9.76463 0.240499 9.3408 0.200491 8.89609 0.193092C8.06247 0.17939 7.32593 0.366623 6.69657 0.751432C6.34815 0.630036 5.78894 0.458903 5.14316 0.349701C3.62432 0.0927961 2.40018 0.292977 1.50479 0.944694C0.420552 1.73377 -0.0820692 3.10475 0.0108882 5.01955C0.0404111 5.62749 0.370483 7.47721 0.890193 9.23143C1.18888 10.2397 1.50738 11.077 1.83686 11.7203C2.3041 12.6325 2.80406 13.1697 3.36533 13.3626C3.67991 13.4706 4.25149 13.5462 4.85265 13.0303C4.92885 13.1254 5.03052 13.2199 5.16543 13.3077C5.33679 13.419 5.54631 13.51 5.75556 13.5639C6.50966 13.7581 7.21601 13.7095 7.81864 13.4373C7.82236 13.5477 7.82522 13.6532 7.82762 13.7443C7.83161 13.8921 7.8356 14.037 7.84085 14.1725C7.87656 15.0887 7.93706 15.8011 8.11633 16.2996C8.12617 16.327 8.1394 16.3688 8.15337 16.4131C8.2428 16.6952 8.39234 17.1675 8.77282 17.5374C9.16679 17.9206 9.64334 18.0381 10.0798 18.0381C10.2987 18.0381 10.5076 18.0085 10.6907 17.968C11.3437 17.8238 12.0853 17.6042 12.6218 16.8172C13.129 16.0732 13.3755 14.9526 13.4202 13.1869C13.4259 13.137 13.4313 13.0893 13.4364 13.0439L13.447 12.9506L13.5665 12.9614L13.5973 12.9635C14.2624 12.9948 15.0756 12.8495 15.575 12.6104C15.9696 12.4218 17.2343 11.7339 16.9365 10.8052" fill="black"/>
<path d="M15.7995 10.9858C13.822 11.4061 13.686 10.7163 13.686 10.7163C15.7739 7.5243 16.6467 3.47253 15.8936 2.48088C13.8387 -0.224165 10.2816 1.05515 10.2222 1.08831L10.2032 1.09187C9.81244 1.00829 9.37524 0.958558 8.88379 0.950268C7.98906 0.935197 7.3103 1.19196 6.79525 1.59438C6.79525 1.59438 0.44981 -1.09894 0.744972 4.98169C0.807742 6.27526 2.54454 14.7696 4.61607 12.2039C5.37322 11.2657 6.10485 10.4725 6.10485 10.4725C6.46817 10.7212 6.90316 10.848 7.35917 10.8025L7.39461 10.7715C7.38358 10.888 7.38863 11.0019 7.40878 11.1368C6.8751 11.7511 7.03196 11.8589 5.96515 12.0852C4.88563 12.3145 5.51978 12.7225 5.93383 12.8292C6.43578 12.9585 7.59702 13.1417 8.38164 12.01L8.35039 12.1391C8.55944 12.3117 8.70626 13.2615 8.68165 14.1226C8.65705 14.9836 8.64063 15.5747 8.80533 16.0365C8.97017 16.4982 9.13434 17.5372 10.5368 17.2276C11.7086 16.9688 12.3159 16.2983 12.4004 15.1799C12.4603 14.3848 12.596 14.5023 12.6045 13.7914L12.7134 13.4549C12.8389 12.3771 12.7333 12.0293 13.4553 12.1911L13.6308 12.207C14.1621 12.2318 14.8576 12.1189 15.2658 11.9234C16.1447 11.5032 16.666 10.8015 15.7993 10.9858H15.7995" fill="#336791"/>
<path d="M7.16658 5.56021C6.98838 5.53466 6.827 5.5583 6.74535 5.62201C6.69947 5.65784 6.68524 5.69935 6.68138 5.72792C6.67114 5.80362 6.7226 5.88734 6.75426 5.9305C6.84376 6.05272 6.97448 6.13671 7.10388 6.15521C7.12263 6.15795 7.14131 6.15918 7.15986 6.15918C7.37563 6.15918 7.57185 5.98606 7.58914 5.85829C7.61075 5.69826 7.38527 5.59159 7.16658 5.56028M13.0701 5.56528C13.0531 5.43984 12.8364 5.40408 12.6308 5.43354C12.4255 5.463 12.2264 5.5585 12.2431 5.68421C12.2564 5.78197 12.4277 5.94886 12.6305 5.94886C12.6477 5.94886 12.665 5.94769 12.6824 5.94516C12.8178 5.92584 12.9171 5.83726 12.9643 5.78622C13.0361 5.7084 13.0777 5.62167 13.0701 5.56528" fill="white"/>
<path d="M16.4574 10.938C16.382 10.7031 16.1393 10.6275 15.736 10.7133C14.5388 10.9679 14.1101 10.7916 13.9693 10.6848C14.8999 9.22416 15.6654 7.45857 16.0784 5.8113C16.274 5.03099 16.3821 4.30631 16.3909 3.71564C16.4007 3.06735 16.2935 2.59094 16.0725 2.29992C15.1814 1.12672 13.8734 0.497403 12.2902 0.480139C11.2018 0.467533 10.2822 0.754514 10.104 0.835216C9.72853 0.739031 9.31927 0.679977 8.8737 0.672441C8.05663 0.658808 7.35034 0.860359 6.7656 1.2712C6.5116 1.17378 5.85518 0.941609 5.0524 0.808361C3.66456 0.578174 2.56171 0.752595 1.77469 1.32704C0.835612 2.01253 0.402077 3.23786 0.486058 4.96892C0.514317 5.55131 0.83641 7.34293 1.34468 9.05872C2.01374 11.317 2.74104 12.5954 3.50624 12.8584C3.59581 12.8892 3.69907 12.9107 3.81297 12.9107C4.09211 12.9107 4.43435 12.7811 4.79042 12.34C5.22473 11.8033 5.67398 11.2795 6.13764 10.7694C6.43845 10.9358 6.76892 11.0287 7.10691 11.038C7.10757 11.0471 7.10844 11.0562 7.10924 11.0652C7.05106 11.1367 6.99408 11.2092 6.93835 11.2828C6.70416 11.5891 6.65542 11.6528 5.90159 11.8127C5.68715 11.8584 5.11763 11.9793 5.10926 12.3906C5.10021 12.84 5.7825 13.0288 5.86023 13.0488C6.13112 13.1186 6.39211 13.1531 6.64099 13.1531C7.24628 13.1531 7.77895 12.9481 8.20464 12.5515C8.19154 14.1537 8.25637 15.7324 8.44309 16.2134C8.59602 16.6071 8.96958 17.5695 10.1496 17.5694C10.3227 17.5694 10.5133 17.5486 10.7229 17.5023C11.9545 17.2304 12.4893 16.6695 12.6961 15.4332C12.8068 14.7724 12.9968 13.1946 13.0862 12.3483C13.2747 12.4089 13.5175 12.4366 13.78 12.4366C14.3273 12.4366 14.9589 12.3168 15.355 12.1273C15.8 11.9144 16.603 11.392 16.4574 10.938V10.938ZM13.5246 5.21898C13.5206 5.46883 13.4872 5.69566 13.4518 5.93242C13.4137 6.18706 13.3743 6.45034 13.3644 6.76993C13.3547 7.08096 13.3924 7.40431 13.4288 7.71705C13.5025 8.3487 13.5781 8.99898 13.2854 9.64062C13.2368 9.55188 13.1935 9.46016 13.1558 9.36597C13.1194 9.27513 13.0404 9.12921 12.931 8.92725C12.5055 8.14105 11.5091 6.29997 12.0192 5.54871C12.1712 5.3251 12.5567 5.09518 13.5246 5.21898V5.21898ZM12.3514 0.986071C13.77 1.01834 14.8921 1.5651 15.6866 2.61108C16.2959 3.41338 15.6249 7.06397 13.6825 10.2133C13.6629 10.1878 13.6433 10.1622 13.6236 10.1368L13.599 10.1052C14.1009 9.25109 14.0028 8.40604 13.9154 7.65683C13.8795 7.34937 13.8456 7.05897 13.8542 6.78617C13.8631 6.49706 13.9002 6.24906 13.9361 6.00929C13.9802 5.71381 14.0251 5.40806 14.0127 5.04764C14.022 5.00982 14.0257 4.96515 14.0209 4.91213C13.9893 4.56651 13.6063 3.5321 12.8256 2.59587C12.3986 2.08378 11.7759 1.51071 10.9257 1.12418C11.2914 1.04608 11.7915 0.97326 12.3514 0.986071V0.986071ZM4.41361 12.0172C4.0213 12.5032 3.7504 12.4101 3.6613 12.3795C3.08082 12.18 2.40724 10.9159 1.81339 8.91135C1.29953 7.17687 0.999251 5.43272 0.975447 4.94364C0.900443 3.39687 1.26436 2.31889 2.05716 1.73959C3.34739 0.79692 5.46865 1.36115 6.32103 1.64731C6.30879 1.65978 6.29602 1.67143 6.28392 1.6841C4.88517 3.13948 4.91835 5.62605 4.92181 5.77807C4.92168 5.83671 4.92647 5.91975 4.93298 6.03395C4.95705 6.45219 5.00187 7.23058 4.88218 8.11207C4.77101 8.93122 5.0161 9.73297 5.55449 10.3118C5.60975 10.3711 5.66782 10.4275 5.72851 10.4809C5.48886 10.7453 4.96802 11.3301 4.41361 12.0172V12.0172ZM5.9083 9.96247C5.47437 9.49593 5.27728 8.84703 5.36751 8.18195C5.49385 7.25079 5.44724 6.43979 5.42217 6.00408C5.41865 5.94311 5.41552 5.88967 5.41373 5.84754C5.61806 5.66085 6.56499 5.13814 7.24029 5.29756C7.54842 5.37024 7.7362 5.58645 7.81426 5.95832C8.21827 7.8836 7.86772 8.68603 7.58606 9.3309C7.52801 9.46373 7.47315 9.58931 7.42634 9.7192L7.39004 9.81963C7.29814 10.0735 7.21263 10.3096 7.15964 10.5338C6.69831 10.5324 6.24955 10.3293 5.9083 9.9624V9.96247ZM5.97912 12.5589C5.8444 12.5243 5.72325 12.464 5.65217 12.4141C5.71155 12.3853 5.81721 12.3461 6.00046 12.3072C6.88728 12.1192 7.02426 11.9864 7.32334 11.5952C7.3919 11.5054 7.46963 11.4037 7.57728 11.2799L7.57741 11.2797C7.73773 11.0948 7.81107 11.1262 7.94406 11.183C8.05184 11.2289 8.15683 11.3681 8.19939 11.5213C8.21954 11.5936 8.24214 11.7309 8.16814 11.8378C7.54337 12.7391 6.63295 12.7275 5.97912 12.5589V12.5589ZM10.6203 17.0087C9.53537 17.2482 9.15124 16.6778 8.8981 16.0258C8.73473 15.6049 8.6544 13.7068 8.71139 11.6107C8.71212 11.5828 8.70826 11.5559 8.70081 11.5306C8.69415 11.4805 8.68402 11.431 8.67049 11.3824C8.58578 11.0774 8.37932 10.8223 8.13163 10.7165C8.03322 10.6745 7.85263 10.5975 7.63559 10.6547C7.68187 10.4582 7.76213 10.2363 7.84917 9.99604L7.88568 9.89499C7.92677 9.78106 7.97837 9.66302 8.03289 9.53807C8.32765 8.8634 8.73133 7.93929 8.29321 5.85165C8.12911 5.0697 7.58107 4.68783 6.75031 4.77655C6.25227 4.82965 5.7966 5.03668 5.56932 5.1554C5.52045 5.18089 5.47577 5.20555 5.43401 5.22953C5.49744 4.44168 5.73708 2.96931 6.63354 2.03774C7.198 1.45131 7.94971 1.16166 8.86558 1.17728C10.6702 1.20769 11.8275 2.16187 12.4805 2.95705C13.0433 3.6422 13.3481 4.33241 13.4697 4.70469C12.5551 4.60884 11.933 4.79484 11.6177 5.25933C10.9317 6.26968 11.993 8.23066 12.5031 9.17312C12.5966 9.34583 12.6774 9.49511 12.7028 9.55855C12.8689 9.9733 13.0839 10.2502 13.2409 10.4523C13.289 10.5142 13.3357 10.5743 13.3712 10.6268C13.0942 10.7091 12.5966 10.8992 12.642 11.8495C12.6054 12.3263 12.3454 14.5587 12.2132 15.3474C12.0388 16.3894 11.6667 16.7775 10.6203 17.0087V17.0087ZM15.1487 11.6694C14.8655 11.8049 14.3914 11.9065 13.9411 11.9283C13.4438 11.9523 13.1906 11.8709 13.131 11.8208C13.1031 11.2286 13.317 11.1668 13.5434 11.1013C13.5789 11.091 13.6137 11.0809 13.6472 11.0689C13.668 11.0863 13.6908 11.1037 13.7158 11.1207C14.1155 11.3925 14.8286 11.4218 15.8352 11.2077L15.8462 11.2055C15.7104 11.3363 15.4781 11.5118 15.1487 11.6694Z" fill="white"/>
</svg>
