<svg width="301" height="200" viewBox="0 0 301 200" fill="none" xmlns="http://www.w3.org/2000/svg">
<g clip-path="url(#clip0_3_227)">
<path d="M116.374 18.0687H79.8552C78.6024 18.0687 77.5831 17.0509 77.5831 15.7998C77.5831 14.5488 78.6024 13.5309 79.8552 13.5309H116.374C117.627 13.5309 118.646 14.5488 118.646 15.7998C118.646 17.0509 117.627 18.0687 116.374 18.0687Z" fill="#E6E7E8"/>
<path d="M144.873 25.7482H79.8552C78.6024 25.7482 77.5831 24.7303 77.5831 23.4793C77.5831 22.2282 78.6024 21.2103 79.8552 21.2103H144.873C146.126 21.2103 147.145 22.2282 147.145 23.4793C147.145 24.7303 146.126 25.7482 144.873 25.7482Z" fill="#E6E7E8"/>
<path d="M144.873 33.3585H79.8552C78.6024 33.3585 77.5831 32.3407 77.5831 31.0896C77.5831 29.8386 78.6024 28.8207 79.8552 28.8207H144.873C146.126 28.8207 147.145 29.8386 147.145 31.0896C147.145 32.3407 146.126 33.3585 144.873 33.3585Z" fill="#E6E7E8"/>
<path d="M151.76 72.852V71.7648C139.193 71.7648 128.219 61.5138 125.302 47.2346L130.036 48.451C127.746 46.2843 125.433 42.6571 123.997 39.6926C123.15 42.8751 121.566 46.8744 119.729 49.4352L124.209 47.316C127.188 62.1716 138.634 72.852 151.76 72.852Z" fill="#3F3D56"/>
<path d="M147.006 31.2458C147.006 32.4447 146.03 33.4202 144.829 33.4202H116.522C115.321 33.4202 114.345 32.4447 114.345 31.2458C114.345 30.0469 115.321 29.0714 116.522 29.0714H144.829C146.03 29.0714 147.006 30.0469 147.006 31.2458Z" fill="#3E72F9"/>
<path d="M19.5447 152.369C19.1138 150.87 18.3759 149.592 17.4973 148.68L14.3054 134.15L7.34778 135.852L11.3348 150.408C11.0726 151.64 11.1251 153.11 11.556 154.609C12.5404 158.032 15.1268 160.305 17.3328 159.687C19.5388 159.068 20.5291 155.792 19.5447 152.369H19.5447Z" fill="#FFB6B6"/>
<path d="M18.5822 57.0539C18.5822 57.0539 11.0673 56.7949 6.71238 61.6872C1.72299 67.7735 -1.68747 91.6215 0.872775 93.2274L7.8094 142.415L17.7009 141.058L15.1623 82.0399L18.5822 57.0539V57.0539Z" fill="#3E72F9"/>
<path d="M69.314 139.965L67.5136 199.998H41.6564L40.6112 176.857L36.0168 199.998H8.30334L11.76 160.218L15.331 151.852L17.748 146.182L69.314 139.965Z" fill="#2F2E41"/>
<path d="M48.7766 47.2478L30.8127 46.1606L24.8247 53.771C19.6531 54.8767 14.982 56.3043 11.76 58.6634C12.5309 81.4541 10.8375 111.089 17.748 116.828L11.6116 160.078C11.6116 160.078 14.0863 157.961 18.22 158.708C19.6481 158.967 21.3721 162.179 23.1269 162.374C36.6106 163.87 58.4763 162.331 69.314 139.965L65.1075 107.587L66.1962 60.2941C62.7927 57.6075 58.5611 55.8615 53.6759 54.8582L48.7766 47.2478V47.2478H48.7766Z" fill="#3E72F9"/>
<path d="M83.3601 34.0173C83.555 35.9019 83.3075 37.6743 82.7376 39.0953L85.73 56.9317L77.1891 58.1053L75.0732 39.8857C74.2244 38.611 73.6194 36.9266 73.4245 35.042C72.9792 30.7366 74.8424 27.017 77.5861 26.734C80.3297 26.4511 82.9149 29.7119 83.3601 34.0173V34.0173H83.3601H83.3601Z" fill="#FFB6B6"/>
<path d="M54.9645 61.6568C54.0703 62.9744 54.3194 64.4554 54.1059 66.2348C53.1995 73.7888 67.6956 96.1108 77.7259 98.6809C79.0421 99.0182 79.7919 100.436 81.1204 100.721H81.1204C85.0559 101.566 88.7201 98.4464 88.5077 94.4323L85.7831 42.9495L74.3367 46.8482L75.0694 73.5771C74.9964 68.0397 69.9047 62.4015 66.0478 60.0564C66.0478 60.0564 58.2357 56.8372 54.9645 61.6568L54.9645 61.6568Z" fill="#3E72F9"/>
<path d="M41.6589 44.7539C50.3979 44.7539 57.4823 37.6795 57.4823 28.9528C57.4823 20.2261 50.3979 13.1517 41.6589 13.1517C32.9199 13.1517 25.8355 20.2261 25.8355 28.9528C25.8355 37.6795 32.9199 44.7539 41.6589 44.7539Z" fill="#FFB6B6"/>
<path d="M56.3977 17.35C56.2616 17.3827 58.4806 15.2229 58.5752 15.1757C60.7526 14.0885 58.5153 24.7158 56.9421 24.4168C53.0716 23.6829 51.4005 22.2261 49.898 25.8627C49.4789 26.8738 49.2176 28.0154 48.401 28.7384C47.2797 29.7223 45.418 29.6407 44.5034 30.8149C43.7685 31.7608 43.9808 33.1524 44.5252 34.2178C45.0696 35.2887 45.897 36.1965 46.3923 37.2891C46.9476 38.5177 44.5796 42.4261 43.676 44.6222V44.6277L43.6706 44.6405C43.4305 45.2166 42.8599 43.5572 42.2575 43.3915C41.5366 43.1933 40.4747 44.8931 39.3265 44.5842C39.3211 44.5842 39.3156 44.5787 39.3102 44.5787C38.216 44.2743 36.9966 43.9482 35.7882 43.622H35.7827C32.3805 42.6979 31.5204 44.0243 31.3571 43.9862L29.2449 41.7792C28.5201 41.2522 28.602 39.5508 28.0909 39.0939C27.6729 38.7202 26.6308 39.5837 26.3237 39.2245C24.8178 37.4632 24.4713 35.7013 23.5836 32.2228C22.7725 29.0428 21.0904 19.5244 24.5471 19.095C27.8078 18.6873 25.4235 14.1537 28.706 14.3222C28.5101 13.4959 28.8748 12.6099 29.4681 12.001C30.056 11.3868 30.8399 11.0063 31.6292 10.6801C35.5214 9.09283 34.8737 7.72843 38.9781 8.65252C39.3864 8.08175 44.6217 6.59374 45.3621 6.78402C45.4165 6.79487 44.2203 9.11459 47.1436 8.65252C47.0347 9.32116 48.6283 7.87121 48.7766 10.2833C51.8944 8.41481 53.5725 12.8871 53.6759 13.5449C53.812 14.3657 52.5708 13.9471 53.3983 14.0721C53.8882 14.1483 54.7265 15.143 54.6449 15.6377C54.9987 15.1593 55.3526 14.6864 55.7118 14.208C55.7771 14.2135 55.837 14.2244 55.9024 14.2352C57.5572 14.5505 55.66 19.9527 55.7282 18.2687C55.8534 15.1757 58.0471 16.9858 56.3977 17.35H56.3977Z" fill="#2F2E41"/>
<path d="M258.229 14.1105C257.644 18.909 257.006 23.7009 256.313 28.485C256.031 30.4281 255.734 32.3959 254.951 34.1968C254.417 35.4262 253.668 36.5487 252.924 37.6638C252.044 38.9816 251.15 40.3161 249.956 41.3577C248.761 42.3993 247.209 43.1307 245.628 43.0083C249.823 40.1883 252.643 35.4188 253.088 30.3886C253.298 28.0241 253.01 25.6472 252.955 23.2741C252.9 20.901 253.099 18.4453 254.195 16.3392C255.292 14.2331 257.458 12.5471 259.834 12.607L258.229 14.1105H258.229Z" fill="#2F2E41"/>
<path d="M215.713 116.455C212.3 119.22 208.104 119.702 206.343 117.533C204.581 115.364 205.92 111.364 209.333 108.6C210.827 107.39 212.471 106.617 213.996 106.312L228.606 94.7791L233.88 101.741L218.917 112.372C218.304 113.798 217.207 115.245 215.713 116.455H215.713L215.713 116.455L215.713 116.455Z" fill="#A0616A"/>
<path d="M218.473 100.798L240.244 80.1695L242.421 78.5387C242.421 78.5387 254.918 66.3804 258.154 66.102C259.525 65.9843 260.896 66.3255 262.05 67.0746C263.916 68.2825 264.882 70.2708 264.882 72.2748C264.882 73.9494 264.206 75.6319 262.824 76.8711L242.893 94.7387L234.414 102.339L223.869 111.795L222.797 109.614L219.172 102.225L218.473 100.798V100.798L218.473 100.798H218.473Z" fill="#3E72F9"/>
<path d="M265.024 86.8374L243.226 93.5044C246.876 94.531 248.404 116.737 245.007 117.427C245.007 117.427 281.134 119.993 279.162 117.427C276.76 114.299 279.982 93.5135 281.519 93.5044L265.024 86.8374Z" fill="#A0616A"/>
<path d="M294.03 200L292.124 177.038C292.124 168.825 291.591 161.405 290.736 154.789C287.312 128.234 278.728 114.623 278.728 114.623H246.61C246.567 114.672 246.523 114.71 246.48 114.759L246.474 114.764C238.897 122.717 234.956 142.716 233.203 154.789C232.37 160.535 232.032 164.487 232.032 164.487L228.891 192.362L231.161 200H249.849L249.555 198.364L261.58 154.789L261.727 154.256L261.858 154.789L273.006 200H294.03V200Z" fill="#2F2E41"/>
<path d="M247.269 73.5916L254.055 59.9109L259.774 49.9716L264.398 45.2655H277.054L278.232 49.9716L285.301 53.8934L287.802 73.5022L278.893 116.047C268.29 107.419 246.434 105.029 246.434 105.029L242.893 94.7386L240.552 82.3419L240.27 80.8595L247.269 73.5916V73.5916V73.5916Z" fill="#3E72F9"/>
<path d="M246.454 98.3394C242.061 98.215 238.564 95.8509 238.643 93.0591C238.723 90.2674 242.348 88.1051 246.742 88.2296C248.665 88.2841 250.416 88.7678 251.771 89.5286L270.38 90.2893L269.836 99.002L251.549 97.3273C250.153 98.0102 248.377 98.3939 246.454 98.3394L246.454 98.3395V98.3394Z" fill="#A0616A"/>
<path d="M270.252 68.6007L287.806 86.0035L257.23 89.1301L250.124 99.1106L292.742 100.522C296.587 101.889 300.683 99.2355 300.999 95.1719V95.1719C301.106 93.7997 292.351 58.9836 287.05 55.7513C280.838 51.963 270.252 68.6007 270.252 68.6007L273.719 62.8367L270.252 68.6007Z" fill="#3E72F9"/>
<path d="M282.446 28.1896C282.573 20.285 276.26 13.7737 268.344 13.6462C260.428 13.5187 253.908 19.8234 253.78 27.728C253.652 35.6327 259.966 42.144 267.882 42.2714C275.797 42.3989 282.318 36.0942 282.446 28.1896Z" fill="#A0616A"/>
<path d="M299.579 72.5591C299.22 73.9181 296.422 74.6193 295.769 76.3643C293.689 77.5493 294.816 67.8679 293.978 67.2319C293.33 66.7481 293.156 67.9168 293.009 66.9112C292.453 63.1386 288.823 63.9812 286.133 63.3723C285.829 62.7798 285.595 62.2036 285.442 61.6437C285.17 60.6326 283.929 60.2793 283.194 61.024C282.862 60.7305 282.622 59.6922 282.388 58.6539C282.219 57.8983 282.051 57.1428 281.855 56.6644L279.982 52.4461L280.586 55.5881C279.362 55.1477 278.126 55.6044 277.413 54.0932C276.498 52.1525 276.134 49.8803 276.798 47.8418C277.402 45.9936 278.42 42.2917 279.568 39.2258C278.267 40.1662 276.705 40.8512 274.892 41.1936C275.535 39.976 276.188 38.7366 276.46 37.383C276.727 36.0295 276.564 34.5237 275.703 33.4474C274.996 32.5613 273.951 32.7842 273.069 32.0721C272.383 31.5177 271.79 30.0989 271.376 29.3215C273.14 35.176 274.473 41.3948 272.23 46.983C270.679 50.8534 267.413 54.0008 263.493 55.4304C265.578 53.941 267.614 52.3537 269.177 50.3315C270.848 48.1626 271.936 45.4228 271.604 42.7048C271.082 38.4376 263.156 24.9401 262.182 22.2874C262.715 24.8803 262.508 26.9025 261.104 28.0169C260.739 24.2552 256.634 24.5977 254.397 23.0919C254.397 23.0919 252.666 13.3235 256.727 13.2637C258.687 13.2365 260.739 8.63769 262.519 7.81686C265.361 6.50681 267.103 7.39831 270.254 7.49615C273.401 7.58855 276.422 8.9421 278.344 11.4263C279.351 12.7255 279.721 11.6927 281.234 12.5026C282.671 13.2691 283.64 12.557 285.268 12.6059C288.529 12.6929 291.691 14.4324 293.52 17.1232C295.349 19.8195 296.476 19.5694 295.752 23.7388C295.741 23.7877 295.741 23.8855 295.752 24.0323C296.15 30.599 295.132 37.1819 292.524 43.2267C291.719 45.0858 295.659 47.0046 295.654 49.3258C295.649 52.022 291.299 54.4791 291.702 55.6315C292.856 61.1817 299.34 59.9477 297.81 69.2378C297.685 69.9933 299.819 71.6513 299.579 72.5591Z" fill="#2F2E41"/>
<path d="M259.867 55.5612C259.986 55.5232 260.106 55.4797 260.226 55.4308C260.074 55.5395 259.927 55.6428 259.774 55.7515L259.867 55.5612H259.867Z" fill="#2F2E41"/>
<path d="M280.058 9.7631C278.499 9.9945 276.915 7.41103 277.8 3.82837C279.729 6.77442 280.716 10.0909 280.871 13.7339L279.831 14.0556L280.058 9.7631Z" fill="#3E72F9"/>
<path d="M288.025 6.41907C286.961 10.1844 281.557 12.7043 280.603 11.3939L280.493 13.6393L279.825 12.7811C281.763 9.90305 284.405 7.69525 288.025 6.41907H288.025Z" fill="#3E72F9"/>
<path d="M169.362 107.955C169.362 106.704 170.382 105.686 171.634 105.686H208.153C209.406 105.686 210.425 106.704 210.425 107.955C210.425 109.206 209.406 110.224 208.153 110.224H171.634C170.382 110.224 169.362 109.206 169.362 107.955Z" fill="#E6E7E8"/>
<path d="M169.362 123.175C169.362 121.924 170.382 120.906 171.634 120.906H208.153C209.406 120.906 210.425 121.924 210.425 123.175C210.425 124.426 209.406 125.444 208.153 125.444H171.634C170.382 125.444 169.362 124.426 169.362 123.175Z" fill="#E6E7E8"/>
<path d="M143.135 117.903C141.882 117.903 140.863 116.885 140.863 115.634C140.863 114.383 141.882 113.365 143.135 113.365H208.153C209.406 113.365 210.425 114.383 210.425 115.634C210.425 116.885 209.406 117.903 208.153 117.903H143.135Z" fill="#E6E7E8"/>
<path d="M138.302 96.1876L133.822 94.0684C135.659 96.6291 137.242 100.628 138.09 103.811C139.525 100.846 141.839 97.2192 144.129 95.0526L139.394 96.2689C142.312 81.9898 153.286 71.7388 165.853 71.7388V70.6516C152.726 70.6516 141.281 81.3319 138.302 96.1876Z" fill="#3F3D56"/>
<path d="M158.922 117.944H130.615C129.414 117.944 128.437 116.969 128.437 115.77C128.437 114.571 129.414 113.596 130.615 113.596H158.922C160.122 113.596 161.099 114.571 161.099 115.77C161.099 116.969 160.122 117.944 158.922 117.944Z" fill="#3E72F9"/>
<path d="M167.189 73.4754C167.943 68.8354 164.788 64.4636 160.141 63.7106C155.495 62.9577 151.117 66.1087 150.363 70.7486C149.609 75.3886 152.764 79.7604 157.411 80.5134C162.057 81.2663 166.435 78.1153 167.189 73.4754Z" fill="#3F3D56"/>
<path d="M112.505 10.4994C115.409 10.4994 117.762 8.14904 117.762 5.2497C117.762 2.35037 115.409 0 112.505 0C109.602 0 107.248 2.35037 107.248 5.2497C107.248 8.14904 109.602 10.4994 112.505 10.4994Z" fill="#E6E7E8"/>
<path d="M174.018 101.28C176.921 101.28 179.275 98.9296 179.275 96.0302C179.275 93.1309 176.921 90.7805 174.018 90.7805C171.115 90.7805 168.761 93.1309 168.761 96.0302C168.761 98.9296 171.115 101.28 174.018 101.28Z" fill="#E6E7E8"/>
</g>
<defs>
<clipPath id="clip0_3_227">
<rect width="301" height="200" fill="white"/>
</clipPath>
</defs>
</svg>
