<svg width="23" height="23" viewBox="0 0 23 23" fill="none" xmlns="http://www.w3.org/2000/svg">
<path d="M11.5 13.2781C12.4924 13.2781 13.2969 12.4736 13.2969 11.4812C13.2969 10.4888 12.4924 9.68433 11.5 9.68433C10.5076 9.68433 9.70312 10.4888 9.70312 11.4812C9.70312 12.4736 10.5076 13.2781 11.5 13.2781Z" fill="#00D8FF"/>
<path d="M11.5 15.6012C9.34025 15.6534 7.18591 15.3623 5.1175 14.7387C4.16201 14.4358 3.27084 13.9586 2.48903 13.3314C2.1907 13.1171 1.94226 12.8408 1.76075 12.5214C1.57925 12.2021 1.46897 11.8473 1.4375 11.4813C1.4375 10.2932 2.74275 9.12882 4.92919 8.36695C7.0529 7.69186 9.27182 7.36468 11.5 7.39807C13.6984 7.36736 15.8876 7.68863 17.9846 8.3497C18.9048 8.64306 19.7657 9.09714 20.5275 9.69088C20.8207 9.89518 21.0654 10.1615 21.2443 10.4709C21.4232 10.7803 21.5318 11.1252 21.5625 11.4813C21.5625 12.7161 20.1034 13.9674 17.7531 14.7451C15.7248 15.3484 13.6159 15.6371 11.5 15.6012ZM11.5 8.2577C9.36827 8.2292 7.24559 8.54024 5.21166 9.17913C3.19916 9.88135 2.29713 10.8416 2.29713 11.4791C2.29713 12.1461 3.26672 13.1948 5.39566 13.9229C7.37443 14.5165 9.43475 14.7928 11.5 14.7415C13.5243 14.7777 15.5422 14.5038 17.4836 13.9294C19.6938 13.1969 20.7 12.1469 20.7 11.4813C20.6637 11.2529 20.5805 11.0345 20.4556 10.8399C20.3306 10.6453 20.1667 10.4787 19.9741 10.3507C19.2925 9.82396 18.5234 9.42152 17.7021 9.16188C15.6961 8.53208 13.6023 8.22684 11.5 8.2577Z" fill="#00D8FF"/>
<path d="M7.41749 20.4433C7.0822 20.451 6.75086 20.3697 6.45724 20.2076C5.42799 19.6139 5.07149 17.9018 5.50346 15.627C5.97974 13.45 6.80498 11.3643 7.94721 9.45078C9.01868 7.53107 10.3904 5.79515 12.0103 4.30884C12.7241 3.65816 13.5476 3.13911 14.4426 2.77575C14.7663 2.62405 15.1194 2.54541 15.4768 2.54541C15.8343 2.54541 16.1874 2.62405 16.5111 2.77575C17.5813 3.39243 17.9357 5.28131 17.4362 7.70565C16.9452 9.76456 16.1414 11.736 15.0528 13.5512C14.019 15.4483 12.6905 17.1691 11.1169 18.6493C10.3772 19.3255 9.51864 19.859 8.58474 20.2227C8.21087 20.3615 7.81623 20.4361 7.41749 20.4433ZM8.69184 9.87772C7.60228 11.71 6.81135 13.7041 6.34871 15.7851C5.95124 17.8803 6.3329 19.1402 6.88778 19.4608C7.46278 19.7936 8.85859 19.4781 10.5534 17.9974C12.0556 16.5793 13.3236 14.9321 14.3103 13.1171C15.3532 11.3817 16.1242 9.49688 16.5967 7.52812C17.0667 5.24609 16.6606 3.84884 16.0842 3.51678C15.8681 3.434 15.6373 3.39694 15.4062 3.40795C15.1751 3.41896 14.9488 3.4778 14.7416 3.58075C13.945 3.90947 13.2126 4.37614 12.5781 4.95931C11.0304 6.383 9.72015 8.04486 8.69687 9.88203L8.69184 9.87772Z" fill="#00D8FF"/>
<path d="M15.5803 20.4527C14.6064 20.4527 13.3695 19.8633 12.0815 18.7557C10.4332 17.2559 9.03827 15.4993 7.95081 13.5541C6.8229 11.6669 6.0042 9.61144 5.52575 7.46558C5.31825 6.52149 5.27981 5.54809 5.41219 4.59058C5.4428 4.23538 5.55095 3.89122 5.72904 3.58236C5.90712 3.27351 6.1508 3.00748 6.44288 2.80305C7.51166 2.18421 9.32506 2.8203 11.1758 4.46336C12.7144 5.91681 14.0209 7.59762 15.0499 9.44717C16.1771 11.2903 17.0044 13.3008 17.5008 15.4035C17.7173 16.3822 17.7507 17.3925 17.5993 18.3834C17.5633 18.7488 17.4487 19.1021 17.2634 19.4191C17.078 19.7361 16.8263 20.0092 16.5255 20.2198C16.2367 20.3799 15.9105 20.4603 15.5803 20.4527ZM8.69472 13.1214C9.73794 14.9804 11.0704 16.6615 12.6421 18.1016C14.2586 19.4924 15.5408 19.7914 16.0921 19.4673C16.6671 19.133 17.0912 17.7689 16.6542 15.5616C16.1754 13.5541 15.3819 11.635 14.3031 9.87555C13.3212 8.10536 12.0741 6.49589 10.6052 5.10305C8.86291 3.5563 7.44985 3.21058 6.87413 3.54408C6.69469 3.6899 6.54743 3.87134 6.44166 4.07695C6.33589 4.28256 6.27389 4.50787 6.2596 4.73864C6.14532 5.59258 6.18254 6.45998 6.36956 7.30099C6.82978 9.35312 7.61497 11.3185 8.69544 13.1229L8.69472 13.1214Z" fill="#00D8FF"/>
</svg>
