<svg width="17" height="17" viewBox="0 0 17 17" fill="none" xmlns="http://www.w3.org/2000/svg">
<g clip-path="url(#clip0_83_2173)">
<path d="M7.65 0C5.62109 0 3.67529 0.80598 2.24063 2.24063C0.80598 3.67529 0 5.62109 0 7.65C0 9.67891 0.80598 11.6247 2.24063 13.0594C3.67529 14.494 5.62109 15.3 7.65 15.3C9.67891 15.3 11.6247 14.494 13.0594 13.0594C14.494 11.6247 15.3 9.67891 15.3 7.65C15.3 5.62109 14.494 3.67529 13.0594 2.24063C11.6247 0.80598 9.67891 0 7.65 0V0ZM0.9435 8.228H3.077C3.111 9.0015 3.21895 9.7699 3.4 10.523H1.564C1.22162 9.80125 1.01146 9.02394 0.9435 8.228V8.228ZM8.228 3.638V1.0115C9.04713 1.32279 9.72022 1.92918 10.115 2.7115C10.2892 3.00645 10.4431 3.3133 10.574 3.6295L8.228 3.638V3.638ZM10.965 4.7855C11.1622 5.53605 11.2795 6.3053 11.3135 7.0805H8.228V4.7855H10.965V4.7855ZM7.072 1.0115V3.638H4.726C4.85712 3.32154 5.01051 3.01477 5.185 2.72C5.5781 1.93447 6.2514 1.32486 7.072 1.0115V1.0115ZM7.072 4.7855V7.0805H3.995C4.029 6.3053 4.1463 5.53605 4.3435 4.7855H7.072V4.7855ZM3.077 7.072H0.9435C1.01146 6.27606 1.22162 5.49875 1.564 4.777H3.4C3.2186 5.5298 3.11043 6.29838 3.077 7.072V7.072ZM3.995 8.228H7.072V10.523H4.3435C4.14633 9.77251 4.02951 9.00319 3.995 8.228V8.228ZM7.0805 11.628V14.2545C6.26137 13.9432 5.58828 13.3368 5.1935 12.5545C5.01901 12.2597 4.86562 11.953 4.7345 11.6365L7.0805 11.628V11.628ZM8.228 14.2545V11.6705H10.574C10.4429 11.987 10.2895 12.2937 10.115 12.5885C9.72022 13.3708 9.04713 13.9772 8.228 14.2885V14.2545V14.2545ZM8.228 10.4805V8.1855H11.305C11.2705 8.96069 11.1537 9.73001 10.9565 10.4805H8.228ZM12.2315 8.1855H14.365C14.297 8.98144 14.0869 9.75875 13.7445 10.4805H11.9C12.0785 9.741 12.1864 8.98705 12.223 8.228L12.2315 8.1855V8.1855ZM12.2315 7.038C12.1926 6.27836 12.0816 5.52414 11.9 4.7855H13.736C14.0785 5.508 14.2885 6.2849 14.3565 7.0805L12.2315 7.038ZM13.0815 3.638H11.56C11.2847 2.86476 10.8857 2.14134 10.3785 1.496C11.4362 1.97079 12.355 2.70814 13.0475 3.638H13.0815V3.638ZM4.9215 1.496C4.41432 2.14134 4.0153 2.86476 3.74 3.638H2.2525C2.94501 2.70814 3.86378 1.97079 4.9215 1.496V1.496ZM2.244 11.696H3.74C4.0153 12.4692 4.41432 13.1927 4.9215 13.838C3.86085 13.3561 2.9418 12.6097 2.2525 11.6705L2.244 11.696V11.696ZM10.37 13.838C10.8772 13.1927 11.2762 12.4692 11.5515 11.696H13.0475C12.3508 12.6134 11.4324 13.3388 10.3785 13.804L10.37 13.838Z" fill="black"/>
</g>
<defs>
<clipPath id="clip0_83_2173">
<rect width="17" height="17" fill="white"/>
</clipPath>
</defs>
</svg>
