<svg width="17" height="17" viewBox="0 0 17 17" fill="none" xmlns="http://www.w3.org/2000/svg">
<path d="M16.5925 0H5.41943V5.69103H10.9172C11.0112 5.69105 11.1015 5.72903 11.168 5.7966C11.2345 5.86418 11.2719 5.95583 11.2719 6.0514V11.5593H16.9473V0.361044C16.9473 0.313663 16.9382 0.26673 16.9204 0.22293C16.9027 0.17913 16.8765 0.139323 16.8436 0.105788C16.8106 0.0722533 16.7715 0.0456483 16.7284 0.0274959C16.6853 0.00934346 16.6392 -8.30168e-08 16.5925 0V0Z" fill="#8E75FF"/>
<path opacity="0.405" d="M5.41887 0V5.69103H0.177346C0.142136 5.69096 0.10774 5.68027 0.0785237 5.6603C0.0493075 5.64034 0.0265877 5.61201 0.0132477 5.57891C-9.24381e-05 5.5458 -0.0034515 5.50942 0.00359673 5.47438C0.010645 5.43933 0.0277827 5.4072 0.0528353 5.38207L5.41887 0ZM11.5742 16.9472C11.5493 16.9721 11.5176 16.989 11.4833 16.9957C11.4489 17.0024 11.4134 16.9987 11.3811 16.985C11.3488 16.9712 11.3213 16.9482 11.3019 16.9186C11.2825 16.889 11.2721 16.8543 11.272 16.8188V11.5593H16.9474L11.5742 16.9466V16.9473V16.9472ZM5.41887 5.69103H11.095C11.1419 5.69111 11.1869 5.71008 11.2201 5.74379C11.2533 5.7775 11.2719 5.82321 11.272 5.87088V11.5593H5.77428C5.72769 11.5593 5.68156 11.55 5.63853 11.5319C5.59549 11.5137 5.55638 11.4872 5.52344 11.4537C5.4905 11.4203 5.46437 11.3805 5.44654 11.3368C5.42871 11.2931 5.41954 11.2462 5.41954 11.1989V5.69103H5.41887Z" fill="#8E75FF"/>
</svg>
