<svg width="26" height="16" viewBox="0 0 26 16" fill="none" xmlns="http://www.w3.org/2000/svg">
<path d="M13 0C9.53337 0 7.36663 1.77781 6.5 5.33333C7.8 3.55552 9.31663 2.88885 11.05 3.33333C12.0389 3.58687 12.7458 4.32281 13.5282 5.13729C14.8028 6.46427 16.2779 8 19.5 8C22.9666 8 25.1334 6.22219 26 2.66667C24.7 4.44448 23.1834 5.11115 21.45 4.66667C20.4611 4.41312 19.7542 3.67719 18.9718 2.86271C17.6972 1.53573 16.2221 0 13 0ZM6.5 8C3.03337 8 0.866633 9.77781 0 13.3333C1.3 11.5555 2.81663 10.8889 4.55 11.3333C5.53891 11.5869 6.24579 12.3228 7.02823 13.1373C8.30284 14.4643 9.77793 16 13 16C16.4666 16 18.6334 14.2222 19.5 10.6667C18.2 12.4445 16.6834 13.1111 14.95 12.6667C13.9611 12.4131 13.2542 11.6772 12.4718 10.8627C11.1972 9.53573 9.72207 8 6.5 8Z" fill="url(#paint0_linear_93_1370)"/>
<defs>
<linearGradient id="paint0_linear_93_1370" x1="-0.72228" y1="5.12" x2="22.013" y2="17.9011" gradientUnits="userSpaceOnUse">
<stop stop-color="#2298BD"/>
<stop offset="1" stop-color="#0ED7B5"/>
</linearGradient>
</defs>
</svg>
