<svg width="264" height="212" viewBox="0 0 264 212" fill="none" xmlns="http://www.w3.org/2000/svg">
<path d="M240.739 167.653C241.625 167.709 242.114 166.612 241.444 165.973L241.377 165.709C241.386 165.688 241.395 165.667 241.404 165.646C242.3 163.518 245.335 163.533 246.223 165.664C247.011 167.555 248.015 169.45 248.262 171.45C248.373 172.332 248.323 173.232 248.126 174.098C249.973 170.078 250.945 165.689 250.945 161.275C250.945 160.166 250.884 159.057 250.76 157.951C250.657 157.046 250.516 156.147 250.333 155.256C249.345 150.439 247.204 145.851 244.117 142.019C242.633 141.211 241.395 139.947 240.647 138.433C240.379 137.887 240.168 137.299 240.069 136.7C240.238 136.722 240.706 134.16 240.578 134.002C240.814 133.646 241.235 133.47 241.492 133.122C242.77 131.395 244.532 131.697 245.451 134.044C247.416 135.032 247.435 136.67 246.23 138.245C245.463 139.248 245.357 140.604 244.684 141.677C244.754 141.765 244.826 141.851 244.895 141.939C246.164 143.561 247.262 145.305 248.188 147.137C247.926 145.101 248.312 142.648 248.971 141.068C249.72 139.266 251.125 137.749 252.362 136.192C253.848 134.321 256.895 135.138 257.157 137.509C257.159 137.532 257.162 137.555 257.164 137.578C256.98 137.681 256.8 137.791 256.625 137.907C255.622 138.567 255.968 140.116 257.157 140.299L257.183 140.303C257.117 140.963 257.003 141.616 256.837 142.259C258.424 148.374 254.998 150.601 250.106 150.701C249.998 150.756 249.893 150.811 249.785 150.864C250.281 152.254 250.676 153.68 250.97 155.126C251.233 156.403 251.416 157.694 251.518 158.991C251.646 160.627 251.635 162.271 251.496 163.904L251.504 163.846C251.856 162.048 252.836 160.368 254.259 159.203C256.38 157.468 259.375 156.829 261.662 155.434C262.764 154.763 264.174 155.631 263.982 156.902L263.973 156.963C263.632 157.101 263.3 157.261 262.979 157.441C262.795 157.544 262.615 157.654 262.439 157.769C261.436 158.43 261.783 159.979 262.971 160.162L262.998 160.166C263.018 160.169 263.034 160.172 263.054 160.175C262.469 161.557 261.655 162.839 260.636 163.946C259.644 169.284 255.382 169.79 250.823 168.236H250.82C250.322 170.398 249.594 172.512 248.658 174.526H240.933C240.905 174.44 240.88 174.352 240.855 174.266C241.569 174.31 242.289 174.269 242.993 174.139C242.419 173.439 241.846 172.732 241.273 172.032C241.259 172.018 241.248 172.004 241.237 171.99C240.946 171.632 240.653 171.276 240.362 170.917L240.362 170.917C240.344 169.816 240.476 168.718 240.739 167.654L240.739 167.653Z" fill="#F2F2F2"/>
<path d="M23.2784 167.653C22.3927 167.709 21.9032 166.612 22.5733 165.973L22.64 165.709C22.6312 165.688 22.6224 165.667 22.6135 165.646C21.7178 163.518 18.6823 163.533 17.7943 165.664C17.0061 167.555 16.0025 169.45 15.7554 171.45C15.6447 172.332 15.6945 173.232 15.8911 174.098C14.0442 170.078 13.0723 165.689 13.0723 161.275C13.0723 160.166 13.1333 159.057 13.2578 157.951C13.3603 157.046 13.5015 156.147 13.6843 155.256C14.6728 150.439 16.8132 145.851 19.9005 142.019C21.3847 141.211 22.6224 139.947 23.37 138.433C23.6386 137.887 23.849 137.299 23.9487 136.7C23.7798 136.722 23.3119 134.16 23.4392 134.002C23.2039 133.646 22.7826 133.47 22.5255 133.122C21.247 131.395 19.4855 131.697 18.5659 134.044C16.6015 135.032 16.5825 136.67 17.7878 138.245C18.5547 139.248 18.66 140.604 19.3329 141.677C19.2637 141.765 19.1917 141.851 19.1224 141.939C17.853 143.561 16.7551 145.305 15.8296 147.137C16.0911 145.101 15.7049 142.648 15.0466 141.068C14.2971 139.266 12.8924 137.749 11.6553 136.192C10.1694 134.321 7.12249 135.138 6.86071 137.509C6.85818 137.532 6.85571 137.555 6.85329 137.578C7.03703 137.681 7.21704 137.791 7.39287 137.907C8.39582 138.567 8.0492 140.116 6.86082 140.299L6.83391 140.303C6.90037 140.963 7.0139 141.616 7.18002 142.259C5.59305 148.374 9.01921 150.601 13.9113 150.701C14.0193 150.756 14.1245 150.811 14.2325 150.864C13.7369 152.254 13.3409 153.68 13.0474 155.126C12.7844 156.403 12.6016 157.694 12.4992 158.991C12.3718 160.627 12.3829 162.271 12.5213 163.904L12.513 163.846C12.1614 162.048 11.1811 160.368 9.7579 159.203C7.6377 157.468 4.64226 156.829 2.35493 155.434C1.25388 154.763 -0.157033 155.631 0.0351295 156.902L0.0444839 156.963C0.385059 157.101 0.717321 157.261 1.03852 157.441C1.22227 157.544 1.40227 157.654 1.57811 157.769C2.58105 158.43 2.23443 159.979 1.04606 160.162L1.01912 160.166C0.999747 160.169 0.983126 160.172 0.963774 160.175C1.54802 161.557 2.36207 162.839 3.38104 163.946C4.37333 169.284 8.63524 169.79 13.1942 168.236H13.1969C13.6953 170.398 14.4236 172.512 15.3595 174.526H23.0848C23.1125 174.44 23.1374 174.352 23.1623 174.266C22.448 174.31 21.728 174.269 21.0247 174.139C21.5979 173.439 22.171 172.732 22.7442 172.032C22.7581 172.018 22.7692 172.004 22.7802 171.99C23.071 171.632 23.3645 171.276 23.6552 170.917L23.6554 170.917C23.6736 169.816 23.5411 168.718 23.2786 167.654L23.2784 167.653Z" fill="#F2F2F2"/>
<path d="M64.5905 175.602L64.2302 176.022C50.1598 164.066 42.0899 146.649 42.0899 128.237C42.0899 111.466 48.6449 95.6985 60.5474 83.8397C72.4501 71.981 88.2757 65.4501 105.109 65.4501C121.943 65.4501 137.769 71.981 149.671 83.8397C161.574 95.6985 168.129 111.466 168.129 128.237C168.129 146.649 160.059 164.066 145.988 176.022L145.628 175.602" fill="#F2F2F2"/>
<path d="M202.532 175.357L201.975 174.707C223.512 156.407 235.864 129.748 235.864 101.567C235.864 48.5753 192.593 5.46363 139.406 5.46363C86.2183 5.46363 42.9473 48.5753 42.9473 101.567C42.9473 129.748 55.2991 156.407 76.8358 174.707L76.2794 175.357C54.5516 156.894 42.0899 129.999 42.0899 101.567C42.0899 75.6677 52.2123 51.3195 70.5924 33.0069C88.9726 14.6946 113.411 4.60938 139.406 4.60938C165.4 4.60938 189.839 14.6946 208.219 33.0069C226.599 51.3195 236.721 75.6677 236.721 101.567C236.721 129.999 224.26 156.894 202.532 175.357V175.357Z" fill="#3F3D56"/>
<path d="M169.338 175.186C169.338 175.468 169.565 175.694 169.848 175.694H263.43C263.713 175.694 263.94 175.468 263.94 175.186C263.94 174.904 263.713 174.678 263.43 174.678H169.848C169.565 174.678 169.338 174.904 169.338 175.186Z" fill="#CCCCCC"/>
<path d="M139.834 5.0365H138.977V34.6798H139.834V5.0365Z" fill="#3F3D56"/>
<path d="M72.8282 100.158H43.0756V101.012H72.8282V100.158Z" fill="#3F3D56"/>
<path d="M75.8865 28.6071L75.2221 29.1473L94.034 52.113L94.6984 51.5728L75.8865 28.6071Z" fill="#3F3D56"/>
<path d="M84.2086 139.999L61.1623 158.747L61.7044 159.409L84.7507 140.661L84.2086 139.999Z" fill="#3F3D56"/>
<path d="M235.736 100.158H205.983V101.012H235.736V100.158Z" fill="#3F3D56"/>
<path d="M202.924 28.6066L184.114 51.5735L184.778 52.1136L203.588 29.1467L202.924 28.6066Z" fill="#3F3D56"/>
<path d="M194.6 140.002L194.058 140.663L217.109 159.406L217.651 158.745L194.6 140.002Z" fill="#3F3D56"/>
<path d="M139.406 110.536C146.035 110.536 151.409 105.182 151.409 98.5768C151.409 91.9718 146.035 86.6173 139.406 86.6173C132.776 86.6173 127.402 91.9718 127.402 98.5768C127.402 105.182 132.776 110.536 139.406 110.536Z" fill="#3F3D56"/>
<path d="M194.708 144.279C197.076 144.279 198.995 142.367 198.995 140.008C198.995 137.649 197.076 135.737 194.708 135.737C192.341 135.737 190.421 137.649 190.421 140.008C190.421 142.367 192.341 144.279 194.708 144.279Z" fill="#3F3D56"/>
<path d="M204.14 105.838C206.507 105.838 208.427 103.926 208.427 101.567C208.427 99.2077 206.507 97.2954 204.14 97.2954C201.772 97.2954 199.853 99.2077 199.853 101.567C199.853 103.926 201.772 105.838 204.14 105.838Z" fill="#3F3D56"/>
<path d="M183.562 56.2914C185.93 56.2914 187.849 54.3791 187.849 52.0202C187.849 49.6612 185.93 47.7489 183.562 47.7489C181.194 47.7489 179.275 49.6612 179.275 52.0202C179.275 54.3791 181.194 56.2914 183.562 56.2914Z" fill="#3F3D56"/>
<path d="M138.977 40.0607C141.345 40.0607 143.264 38.1484 143.264 35.7894C143.264 33.4305 141.345 31.5182 138.977 31.5182C136.609 31.5182 134.69 33.4305 134.69 35.7894C134.69 38.1484 136.609 40.0607 138.977 40.0607Z" fill="#3F3D56"/>
<path d="M94.8204 56.2914C97.1881 56.2914 99.1074 54.3791 99.1074 52.0202C99.1074 49.6612 97.1881 47.7489 94.8204 47.7489C92.4527 47.7489 90.5334 49.6612 90.5334 52.0202C90.5334 54.3791 92.4527 56.2914 94.8204 56.2914Z" fill="#3F3D56"/>
<path d="M72.9565 104.557C75.3242 104.557 77.2436 102.644 77.2436 100.285C77.2436 97.9263 75.3242 96.014 72.9565 96.014C70.5889 96.014 68.6695 97.9263 68.6695 100.285C68.6695 102.644 70.5889 104.557 72.9565 104.557Z" fill="#3F3D56"/>
<path d="M84.9602 143.852C87.3279 143.852 89.2473 141.94 89.2473 139.581C89.2473 137.222 87.3279 135.31 84.9602 135.31C82.5926 135.31 80.6732 137.222 80.6732 139.581C80.6732 141.94 82.5926 143.852 84.9602 143.852Z" fill="#3F3D56"/>
<path d="M115.853 103.72C118.221 103.72 120.14 101.808 120.14 99.4491C120.14 97.0902 118.221 95.1779 115.853 95.1779C113.485 95.1779 111.566 97.0902 111.566 99.4491C111.566 101.808 113.485 103.72 115.853 103.72Z" fill="#3F3D56"/>
<path d="M214.792 92.064L118.852 96.1804C117.196 96.2515 115.911 97.6465 115.983 99.2962L115.983 99.2962C116.054 100.946 117.454 102.226 119.11 102.155L215.051 98.0382C216.706 97.9672 217.991 96.5722 217.92 94.9225C217.848 93.2728 216.448 91.993 214.792 92.064Z" fill="#3E72F9"/>
<path d="M172.368 208.318L167.368 208.317L164.989 189.103L172.369 189.103L172.368 208.318Z" fill="#A0616A"/>
<path d="M155.237 208.205C155.082 208.466 154.999 209.309 154.999 209.613C154.999 210.547 155.759 211.304 156.696 211.304H172.181C172.82 211.304 173.338 210.787 173.338 210.15V209.508C173.338 209.508 174.104 207.578 172.527 205.198C172.527 205.198 170.567 207.061 167.638 204.143L166.775 202.584L160.523 207.14L157.058 207.565C156.299 207.658 155.627 207.55 155.237 208.205V208.205Z" fill="#2F2E41"/>
<path d="M198.696 208.318L193.696 208.317L191.318 189.103L198.697 189.103L198.696 208.318Z" fill="#A0616A"/>
<path d="M181.566 208.205C181.41 208.466 181.328 209.309 181.328 209.613C181.328 210.547 182.088 211.304 183.025 211.304H198.509C199.148 211.304 199.667 210.787 199.667 210.15V209.508C199.667 209.508 200.433 207.578 198.856 205.198C198.856 205.198 196.896 207.061 193.967 204.143L193.103 202.584L186.851 207.14L183.386 207.565C182.628 207.658 181.956 207.55 181.566 208.205V208.205Z" fill="#2F2E41"/>
<path d="M210.319 53.643L210.849 76.2097L205.946 96.5205L201.382 95.0094L202.712 76.5067L201.542 51.5748L210.319 53.643Z" fill="#A0616A"/>
<path d="M206.045 99.7635C206.468 96.8531 205.405 94.2908 203.671 94.0404C201.936 93.79 200.187 95.9464 199.764 98.8568C199.341 101.767 200.404 104.329 202.138 104.58C203.872 104.83 205.622 102.674 206.045 99.7635Z" fill="#A0616A"/>
<path d="M198.781 33.228C198.781 33.228 207.193 33.209 208.614 38.1197C210.091 43.2258 212.447 62.2701 211.428 62.2712L200.926 63.5936L198.781 33.228Z" fill="#3E72F9"/>
<path d="M166.274 56.0481L161.639 78.1434L152.23 96.8115L148.13 94.306L153.648 76.5892L160.771 52.0455L166.274 56.0481Z" fill="#A0616A"/>
<path d="M151.585 99.9919C152.662 97.2537 152.212 94.5177 150.58 93.8809C148.948 93.2441 146.752 94.9477 145.676 97.6859C144.6 100.424 145.05 103.16 146.682 103.797C148.313 104.434 150.509 102.73 151.585 99.9919Z" fill="#A0616A"/>
<path d="M164.775 34.1366C164.775 34.1366 169.375 36.1804 170.661 41.1277C171.831 45.628 174.724 65.4316 166.225 64.502L155.507 63.6477C155.431 53.1371 159.985 43.2271 164.775 34.1366Z" fill="#3E72F9"/>
<path d="M163.413 98.5769L161.698 113.953L162.556 157.16L164.27 197.67H173.341L183.562 123.777L190.192 197.67H200.724L203.711 147.696C203.711 147.696 205.855 101.14 201.996 97.2955C198.138 93.4514 163.413 98.5769 163.413 98.5769Z" fill="#2F2E41"/>
<path d="M191.922 25.325H177.877L174.774 29.5962C174.774 29.5962 168.772 30.4505 164.913 34.2946L164.485 75.2986L161.698 102.112L203.708 100.926L201.139 86.1903L202.85 34.4711C202.85 34.4711 198.352 29.1691 195.351 30.0233L191.922 25.325Z" fill="#3E72F9"/>
<path d="M181.335 23.0412C187.139 23.0412 191.844 18.3538 191.844 12.5715C191.844 6.78925 187.139 2.10181 181.335 2.10181C175.531 2.10181 170.827 6.78925 170.827 12.5715C170.827 18.3538 175.531 23.0412 181.335 23.0412Z" fill="#A0616A"/>
<path d="M190.363 2.82232C189.188 1.7908 187.574 1.19698 186.035 1.30222C185.102 1.36601 184.196 1.07366 183.367 0.640987C183.311 0.611694 183.254 0.585025 183.196 0.561127C182.674 0.346095 182.093 0.322001 181.528 0.335643C180.499 0.360523 179.281 -0.668391 178.475 0.758527C175.422 0.185863 175.141 1.95293 173.72 2.99421C173.318 2.75771 170.715 3.18856 170.441 3.61409C170.232 3.93815 170.087 4.2683 169.989 4.58889C169.926 4.79453 170.307 5.54484 170.278 5.73848C170.249 5.93213 169.811 5.56913 169.807 5.74251C169.797 6.20663 169.862 6.58336 169.917 6.79346C170.056 7.3297 168.627 6.64271 168.158 6.94027C167.689 7.23785 168.167 8.61466 167.709 8.92778C167.161 9.30134 167.524 9.71425 168.001 10.2025C168.329 10.539 168.713 10.9113 168.89 11.3311C169.325 12.3601 166.936 13.272 168.035 13.0545C169.17 12.8301 169.54 14.5893 170.494 13.9385C172.653 12.4663 172.575 12.5871 174.46 14.3954C174.983 14.8975 176.011 12.9312 176.703 13.1518C178.007 13.5677 179.072 14.9614 179.933 17.0681C180.054 17.3662 178.899 22.2311 178.846 22.5486C178.723 23.2883 182.18 21.6191 182.171 22.426C182.158 23.4908 184.058 22.1486 184.605 23.0819C184.674 22.9968 188.528 21.2506 188.712 21.115L191.383 18.5435C193.133 15.559 193.801 11.9595 193.238 8.54868C192.884 6.40044 192.003 4.26121 190.363 2.82232H190.363Z" fill="#2F2E41"/>
<path d="M138.9 211.492C138.9 211.774 139.127 212 139.41 212H232.992C233.275 212 233.502 211.774 233.502 211.492C233.502 211.21 233.275 210.983 232.992 210.983H139.41C139.127 210.983 138.9 211.21 138.9 211.492Z" fill="#CCCCCC"/>
<path d="M0 175.186C0 175.468 0.227226 175.694 0.510183 175.694H94.0919C94.3748 175.694 94.602 175.468 94.602 175.186C94.602 174.904 94.3748 174.678 94.0919 174.678H0.510183C0.227226 174.678 0 174.904 0 175.186Z" fill="#CCCCCC"/>
</svg>
