<svg width="30.66" height="24/93" viewBox="0 0 53 44" fill="none" xmlns="http://www.w3.org/2000/svg">
<path d="M52.9807 5.10888C51.0323 5.97221 48.9393 6.55554 46.739 6.81921C49.0093 5.46073 50.7079 3.32263 51.5177 0.803876C49.3846 2.07085 47.0501 2.96267 44.6157 3.44054C42.9786 1.69256 40.8101 0.533971 38.4471 0.144649C36.084 -0.244673 33.6586 0.157056 31.5472 1.28747C29.4359 2.41788 27.7568 4.21372 26.7707 6.39619C25.7846 8.57865 25.5466 11.0256 26.0937 13.3572C21.7716 13.1402 17.5435 12.0168 13.6837 10.06C9.82385 8.10315 6.41863 5.35659 3.689 1.99854C2.75567 3.60854 2.219 5.47521 2.219 7.46321C2.21796 9.25287 2.65868 11.0151 3.50205 12.5936C4.34542 14.1721 5.56538 15.518 7.05367 16.5119C5.32765 16.457 3.6397 15.9906 2.13033 15.1515V15.2915C2.13016 17.8016 2.99841 20.2344 4.58776 22.1772C6.17711 24.12 8.38967 25.453 10.85 25.9502C9.24883 26.3835 7.57012 26.4474 5.94067 26.1369C6.63483 28.2966 7.98699 30.1853 9.80786 31.5384C11.6287 32.8915 13.8271 33.6413 16.0953 33.6829C12.2449 36.7055 7.48974 38.3451 2.59467 38.3379C1.72756 38.3381 0.861178 38.2875 0 38.1862C4.96878 41.381 10.7528 43.0765 16.66 43.0699C36.6567 43.0699 47.5883 26.5079 47.5883 12.1439C47.5883 11.6772 47.5767 11.2059 47.5557 10.7392C49.682 9.20148 51.5175 7.2973 52.976 5.11588L52.9807 5.10888V5.10888Z" fill="#3E72F9"/>
</svg>
